0
SECTION
2
HEADER
9
$INSUNITS
70
4
0
ENDSEC
0
SECTION
2
ENTITIES
0
CIRCLE
8
0
10
50.92958178940651
20
50.92958178940651
40
4.075
0
ARC
8
0
10
101.4564235171351
20
50.199241316542356
40
0.15
50
0
51
82.5685920288323
0
ARC
8
0
10
101.56469859157093
20
51.34402423730748
40
1
50
-114.37698324006256
51
-95.09884377611891
0
ARC
8
0
10
101.40016357881304
20
50.929581789406505
40
0.555
50
179.99999999999923
51
-116.56505117707964
0
ARC
8
0
10
101.40016357881304
20
50.92958178940652
40
0.555
50
116.56505117707964
51
-179.99999999999923
0
ARC
8
0
10
101.56469859157093
20
50.515139341505545
40
1
50
95.09884377611891
51
114.37698324006256
0
ARC
8
0
10
101.45642351713508
20
51.65992226227067
40
0.15
50
-82.5685920288269
51
0
0
ARC
8
0
10
50.9361030175801
20
50.929709849881085
40
50.675581789406515
50
0.825635066812875
51
1.4243649331842536
0
ARC
8
0
10
101.44614218569832
20
52.18347887969711
40
0.15
50
2.250000000000897
51
84.81859202882535
0
ARC
8
0
10
101.50938981742239
20
53.33163007379174
40
1
50
-112.12698324006283
51
-92.84884377611898
0
ARC
8
0
10
101.36125258934376
20
52.911047531711624
40
0.555
50
-177.74999999999886
51
-114.31505117707717
0
ARC
8
0
10
101.36125258934376
20
52.91104753171162
40
0.555
50
118.81505117707755
51
-177.74999999999963
0
ARC
8
0
10
101.54193168571703
20
52.50338421820507
40
1
50
97.34884377611813
51
116.62698324006199
0
ARC
8
0
10
101.38879612088624
20
53.6430336933524
40
0.15
50
-80.31859202882414
51
2.250000000000897
0
ARC
8
0
10
50.93609296231897
20
50.9299657733662
40
50.675581789406515
50
3.075635066814599
51
3.674364933185965
0
ARC
8
0
10
101.3579679796438
20
54.16578302442291
40
0.15
50
4.499999999999724
51
87.06859202882798
0
ARC
8
0
10
101.37609064539224
20
55.3155321259254
40
1
50
-109.8769832400625
51
-90.59884377611925
0
ARC
8
0
10
101.24457961886142
20
54.889457997461584
40
0.555
50
-175.50000000000063
51
-112.06505117707788
0
ARC
8
0
10
101.24457961886142
20
54.88945799746158
40
0.555
50
121.06505117707745
51
-175.50000000000134
0
ARC
8
0
10
101.44112420477933
20
54.48920240563087
40
1
50
99.59884377611816
51
118.8769832400623
0
ARC
8
0
10
101.24336427349508
20
55.62196117827316
40
0.15
50
-78.0685920288241
51
4.499999999999724
0
ARC
8
0
10
50.93607286730107
20
50.93022110477792
40
50.675581789406515
50
5.325635066813998
51
5.924364933185388
0
ARC
8
0
10
101.1920368572063
20
56.14309718140887
40
0.15
50
6.750000000001014
51
89.31859202882872
0
ARC
8
0
10
101.16500661314208
20
57.29267136054019
40
1
50
-107.62698324006308
51
-88.34884377611931
0
ARC
8
0
10
101.05032456862985
20
56.8617626211163
40
0.555
50
-173.2499999999994
51
-109.81505117707746
0
ARC
8
0
10
101.05032456862985
20
56.86176262111629
40
0.555
50
123.31505117707822
51
-173.2500000000001
0
ARC
8
0
10
101.26243158658673
20
56.46953191607291
40
1
50
101.84884377611829
51
121.12698324006215
0
ARC
8
0
10
101.02035222032913
20
57.593653354286744
40
0.15
50
-75.81859202882559
51
6.749999999998318
0
ARC
8
0
10
50.936042763511345
20
50.930475450412665
40
50.675581789406515
50
7.575635066812282
51
8.17436493318366
0
ARC
8
0
10
100.94860467214966
20
58.11237247554349
40
0.15
50
8.999999999998165
51
91.56859202882826
0
ARC
8
0
10
100.87646319694991
20
59.25999917224221
40
1
50
-105.37698324006213
51
-86.098843776118
0
ARC
8
0
10
100.77878696585661
20
58.82492025190154
40
0.555
50
-171.00000000000003
51
-107.56505117707799
0
ARC
8
0
10
100.77878696585661
20
58.82492025190154
40
0.555
50
125.56505117707769
51
-171.00000000000003
0
ARC
8
0
10
101.00612936220465
20
58.441319224963216
40
1
50
104.09884377612036
51
123.37698324006351
0
ARC
8
0
10
100.72010382981018
20
59.55507001496881
40
0.15
50
-73.56859202883108
51
9.000000000000846
0
ARC
8
0
10
50.93600269736838
20
50.930728418083305
40
50.675581789406515
50
9.825635066814685
51
10.424364933186055
0
ARC
8
0
10
100.62804677925891
20
60.070572427059126
40
0.15
50
11.249999999999194
51
93.8185920288227
0
ARC
8
0
10
100.51090530984953
20
61.21448208414059
40
1
50
-103.12698324006301
51
-83.8488437761188
0
ARC
8
0
10
100.43038550184376
20
60.77590384304317
40
0.555
50
-168.75000000000006
51
-105.31505117707775
0
ARC
8
0
10
100.43038550184376
20
60.77590384304316
40
0.555
50
127.8150511770773
51
-168.75000000000077
0
ARC
8
0
10
100.67261273108583
20
60.401523979189484
40
1
50
106.3488437761195
51
125.62698324006277
0
ARC
8
0
10
100.34308206319395
20
61.50318679799492
40
0.15
50
-71.31859202882757
51
11.249999999999194
0
ARC
8
0
10
50.93595273065004
20
50.93097961773959
40
50.675581789406515
50
12.075635066812536
51
12.674364933183915
0
ARC
8
0
10
100.23085745557043
20
62.01467763356374
40
0.15
50
13.499999999996312
51
96.06859202882991
0
ARC
8
0
10
100.06889661560659
20
63.15310642524894
40
1
50
-100.87698324006087
51
-81.598843776117
0
ARC
8
0
10
100.00565738639614
20
62.71170511925375
40
0.555
50
-166.49999999999991
51
-103.06505117707636
0
ARC
8
0
10
100.00565738639615
20
62.711705119253736
40
0.555
50
130.06505117707644
51
-166.5000000000017
0
ARC
8
0
10
100.26239595170178
20
62.34712368509917
40
1
50
108.59884377611905
51
127.87698324006261
0
ARC
8
0
10
99.88986826071749
20
63.434999848487976
40
0.15
50
-69.06859202882767
51
13.499999999996312
0
ARC
8
0
10
50.935892940402454
20
50.93122866204389
40
50.675581789406515
50
14.325635066812698
51
14.924364933184089
0
ARC
8
0
10
99.75764913823247
20
63.941690425740425
40
0.15
50
15.750000000000922
51
98.31859202882978
0
ARC
8
0
10
99.55111865959033
20
65.07288297734756
40
1
50
-98.62698324006361
51
-79.34884377611979
0
ARC
8
0
10
99.5052575194829
20
64.62933921527505
40
0.555
50
-164.24999999999866
51
-100.81505117707594
0
ARC
8
0
10
99.5052575194829
20
64.62933921527504
40
0.555
50
132.31505117707687
51
-164.25000000000009
0
ARC
8
0
10
99.77611154859315
20
64.27511836896565
40
1
50
110.84884377611839
51
130.12698324006266
0
ARC
8
0
10
99.36116124521463
20
65.34753045074471
40
0.15
50
-66.81859202883035
51
15.749999999995698
0
ARC
8
0
10
50.935823418818565
20
50.931475166986345
40
50.675581789406515
50
16.57563506681714
51
17.17436493318853
0
ARC
8
0
10
99.2091514801715
20
65.84863948953634
40
0.15
50
17.999999999999154
51
100.56859202882339
0
ARC
8
0
10
98.95836981787944
20
66.9708515841413
40
1
50
-96.37698324006189
51
-77.09884377611819
0
ARC
8
0
10
98.9299574814291
20
66.52584927832388
40
0.555
50
-161.99999999999903
51
-98.56505117707877
0
ARC
8
0
10
98.9299574814291
20
66.52584927832389
40
0.555
50
134.5650511770799
51
-161.99999999999764
0
ARC
8
0
10
99.21450933706295
20
66.18253520273022
40
1
50
113.09884377611824
51
132.37698324006163
0
ARC
8
0
10
98.75777624458179
20
67.23782962119941
40
0.15
50
-64.56859202882839
51
17.999999999999154
0
ARC
8
0
10
50.93574427309245
20
50.93171875248476
40
50.675581789406515
50
18.825635066813362
51
19.424364933184748
0
ARC
8
0
10
98.58621022502044
20
67.73258444771352
40
0.15
50
20.250000000001965
51
102.81859202883075
0
ARC
8
0
10
98.29156406622468
20
68.84408571560597
40
1
50
-94.12698324006172
51
-74.84884377611748
0
ARC
8
0
10
98.28064434319482
20
68.3983110273448
40
0.555
50
-159.75000000000108
51
-96.31505117707994
0
ARC
8
0
10
98.28064434319482
20
68.39831102734482
40
0.555
50
136.81505117708022
51
-159.74999999999972
0
ARC
8
0
10
98.57845526701564
20
68.06643308788757
40
1
50
115.34884377611759
51
134.6269832400619
0
ARC
8
0
10
98.08064363475577
20
69.10298265554287
40
0.15
50
-62.31859202882345
51
20.25000000000009
0
ARC
8
0
10
50.935655625264566
20
50.93195904293666
40
50.675581789406515
50
21.075635066814744
51
21.67436493318612
0
ARC
8
0
10
97.88978590304296
20
69.59062039369753
40
0.15
50
22.4999999999929
51
105.06859202882816
0
ARC
8
0
10
97.55172957076402
20
70.6896969804856
40
1
50
-91.87698324006084
51
-72.59884377611735
0
ARC
8
0
10
97.55831929857607
20
70.24383726203959
40
0.555
50
-157.49999999999977
51
-94.06505117707758
0
ARC
8
0
10
97.55831929857607
20
70.24383726203959
40
0.555
50
139.06505117707755
51
-157.49999999999977
0
ARC
8
0
10
97.8689300877251
20
69.92390719044643
40
1
50
117.59884377611742
51
136.87698324006132
0
ARC
8
0
10
97.33080750514138
20
70.94011362298514
40
0.15
50
-60.068592028828725
51
22.499999999997915
0
ARC
8
0
10
50.93555761202171
20
50.93219566783692
40
50.675581789406515
50
23.32563506681494
51
23.924364933186347
0
ARC
8
0
10
97.12095235006576
20
71.41988237073278
40
0.15
50
24.750000000001364
51
107.31859202882902
0
ARC
8
0
10
96.7400071026652
20
72.50483957998232
40
1
50
-89.6269832400615
51
-70.3488437761177
0
ARC
8
0
10
96.7640961204365
20
72.05958231472074
40
0.555
50
-155.24999999999991
51
-91.8150511770795
0
ARC
8
0
10
96.7640961204365
20
72.05958231472076
40
0.555
50
141.31505117707977
51
-155.24999999999855
0
ARC
8
0
10
97.08702783559042
20
71.75209341997308
40
1
50
119.84884377612012
51
139.12698324006374
0
ARC
8
0
10
96.50942404870123
20
72.7463898007323
40
0.15
50
-57.818592028832335
51
24.750000000001364
0
ARC
8
0
10
50.935450384493784
20
50.93242826232556
40
50.675581789406515
50
25.575635066815842
51
26.1743649331872
0
ARC
8
0
10
96.28089505170135
20
73.21754978943821
40
0.15
50
26.999999999998863
51
109.56859202882576
0
ARC
8
0
10
95.85764827913923
20
74.28671469577183
40
1
50
-87.3769832400636
51
-68.09884377611948
0
ARC
8
0
10
95.89919944335034
20
73.84274643812485
40
0.555
50
-152.99999999999878
51
-89.56505117707846
0
ARC
8
0
10
95.89919944335034
20
73.84274643812485
40
0.555
50
143.56505117707812
51
-152.99999999999878
0
ARC
8
0
10
96.2339541472109
20
73.54817284581111
40
1
50
122.0988437761181
51
141.37698324006277
0
ARC
8
0
10
95.61775977919012
20
74.51902604183978
40
0.15
50
-55.568592028824725
51
26.999999999998863
0
ARC
8
0
10
50.93533410801517
20
50.93265646776399
40
50.675581789406515
50
27.825635066810708
51
28.424364933182098
0
ARC
8
0
10
95.37090931541528
20
74.98085077695178
40
0.15
50
29.250000000003332
51
111.8185920288339
0
ARC
8
0
10
94.90601363353727
20
76.03257480557849
40
1
50
-85.12698324006192
51
-65.84884377611795
0
ARC
8
0
10
94.96496287530472
20
75.59058012241994
40
0.555
50
-150.74999999999844
51
-87.3150511770759
0
ARC
8
0
10
94.96496287530472
20
75.59058012241992
40
0.555
50
145.81505117707545
51
-150.74999999999974
0
ARC
8
0
10
95.3110244003821
20
75.30937604366835
40
1
50
124.34884377611853
51
143.6269832400623
0
ARC
8
0
10
94.65718957828255
20
76.25528906970705
40
0.15
50
-53.31859202883189
51
29.250000000003332
0
ARC
8
0
10
50.935208961882424
20
50.9328799322633
40
50.675581789406515
50
30.075635066815796
51
30.674364933187157
0
ARC
8
0
10
94.39239827325571
20
76.70706645095727
40
0.15
50
31.500000000000572
51
114.06859202882977
0
ARC
8
0
10
93.88657051750705
20
77.73972791965545
40
1
50
-82.87698324006377
51
-63.598843776120304
0
ARC
8
0
10
93.96282694137273
20
77.30038833475032
40
0.555
50
-148.49999999999957
51
-85.06505117707589
0
ARC
8
0
10
93.96282694137274
20
77.30038833475031
40
0.555
50
148.0650511770768
51
-148.50000000000156
0
ARC
8
0
10
94.31966168587829
20
77.03298736586827
40
1
50
126.59884377612015
51
145.87698324006362
0
ARC
8
0
10
93.62919457560473
20
77.95250169259195
40
0.15
50
-51.068592028830544
51
31.500000000000572
0
ARC
8
0
10
50.93507513905459
20
50.9330983112707
40
50.675581789406515
50
32.325635066813945
51
32.92436493318532
0
ARC
8
0
10
93.34687071832585
20
78.39353511200403
40
0.15
50
33.749999999998614
51
116.31859202882745
0
ARC
8
0
10
92.80089083844268
20
79.40554173163771
40
1
50
-80.62698324006142
51
-61.34884377611716
0
ARC
8
0
10
92.89433686252823
20
78.96953467478198
40
0.555
50
-146.24999999999852
51
-82.81505117707704
0
ARC
8
0
10
92.89433686252825
20
78.96953467478197
40
0.555
50
150.31505117707624
51
-146.25000000000057
0
ARC
8
0
10
93.26139461314985
20
78.71634912868188
40
1
50
128.84884377612156
51
148.1269832400652
0
ARC
8
0
10
92.53535986494026
20
79.60804693164647
40
0.15
50
-48.818592028827304
51
33.74999999999108
0
ARC
8
0
10
50.9349328458804
20
50.93331126805514
40
50.675581789406515
50
34.575635066813554
51
35.174364933184926
0
ARC
8
0
10
92.23593877833403
20
80.03765634765438
40
0.15
50
36.00000000000038
51
118.56859202882555
0
ARC
8
0
10
91.65064863571781
20
81.02744767736782
40
1
50
-78.37698324006384
51
-59.09884377611929
0
ARC
8
0
10
91.76114017302714
20
80.59544543984072
40
0.555
50
-144.00000000000182
51
-80.56505117707974
0
ARC
8
0
10
91.76114017302713
20
80.59544543984072
40
0.555
50
152.56505117707718
51
-144.00000000000097
0
ARC
8
0
10
92.13785495331817
20
80.35686571028333
40
1
50
131.09884377611934
51
150.37698324006223
0
ARC
8
0
10
91.3773720601303
20
81.21937205610824
40
0.15
50
-46.56859202882686
51
36.00000000000038
0
ARC
8
0
10
50.93478230176456
20
50.93351847425434
40
50.675581789406515
50
36.82563506681242
51
37.4243649331838
0
ARC
8
0
10
91.06131542980977
20
81.63689504213124
40
0.15
50
38.25000000000313
51
120.81859202882734
0
ARC
8
0
10
90.43761749943765
20
82.6029448954355
40
1
50
-76.12698324006064
51
-56.848843776116716
0
ARC
8
0
10
90.56498418002887
20
82.17561359337518
40
0.555
50
-141.75000000000136
51
-78.31505117707904
0
ARC
8
0
10
90.56498418002886
20
82.17561359337518
40
0.555
50
154.81505117707786
51
-141.75000000000045
0
ARC
8
0
10
90.95077512310299
20
81.95200755301093
40
1
50
133.34884377611994
51
152.62698324006328
0
ARC
8
0
10
90.1570166944372
20
82.78399251942659
40
0.15
50
-44.31859202883326
51
38.25000000000313
0
ARC
8
0
10
50.93462373883803
20
50.93371961036776
40
50.675581789406515
50
39.07563506681575
51
39.67436493318709
0
ARC
8
0
10
89.82481185681807
20
83.18878528528286
40
0.15
50
40.49999999999705
51
123.0685920288264
0
ARC
8
0
10
89.16366783569227
20
84.12960408332486
40
1
50
-73.87698324006378
51
-54.59884377611997
0
ARC
8
0
10
89.30771326937551
20
83.70760263062547
40
0.555
50
-139.50000000000125
51
-76.06505117707702
0
ARC
8
0
10
89.30771326937551
20
83.70760263062547
40
0.555
50
157.06505117707752
51
-139.50000000000125
0
ARC
8
0
10
89.70198551356118
20
83.49931506376132
40
1
50
135.59884377612016
51
154.87698324006323
0
ARC
8
0
10
88.87617546738173
20
84.29949579025296
40
0.15
50
-42.06859202882949
51
40.49999999999705
0
ARC
8
0
10
50.93445740158716
20
50.933914366265746
40
50.675581789406515
50
41.325635066812325
51
41.924364933183696
0
ARC
8
0
10
88.52833465824494
20
84.69093417483757
40
0.15
50
42.749999999995225
51
125.31859202882251
0
ARC
8
0
10
87.83076398252526
20
85.6050712432226
40
1
50
-71.6269832400615
51
-52.34884377611691
0
ARC
8
0
10
87.99126606168254
20
85.18905033553696
40
0.555
50
-137.25000000000153
51
-73.81505117707941
0
ARC
8
0
10
87.99126606168252
20
85.18905033553696
40
0.555
50
159.31505117707792
51
-137.25000000000054
0
ARC
8
0
10
88.39341166775664
20
84.996402406504
40
1
50
137.84884377611962
51
157.12698324006337
0
ARC
8
0
10
87.5368233432988
20
85.76354507238966
40
0.15
50
-39.81859202882426
51
42.749999999998906
0
ARC
8
0
10
50.9342835464985
20
50.934102441640995
40
50.675581789406515
50
43.57563506681379
51
44.174364933185174
0
ARC
8
0
10
87.17388290796004
20
86.14102550608557
40
0.15
50
45
51
127.5685920288275
0
ARC
8
0
10
86.44096118106752
20
87.02707131171218
40
1
50
-69.37698324006098
51
-50.09884377611725
0
ARC
8
0
10
86.61767242312614
20
86.61767242312612
40
0.555
50
-135
51
-71.56505117707754
0
ARC
8
0
10
86.61767242312614
20
86.61767242312612
40
0.555
50
161.56505117707752
51
-135
0
ARC
8
0
10
87.02707131171219
20
86.44096118106751
40
1
50
140.09884377611723
51
159.37698324006098
0
ARC
8
0
10
86.14102550608558
20
87.17388290796002
40
0.15
50
-37.568592028827496
51
45
0
ARC
8
0
10
50.93410244164074
20
50.93428354649874
40
50.675581789406515
50
45.8256350668144
51
46.42436493318582
0
ARC
8
0
10
85.76354507238966
20
87.5368233432988
40
0.15
50
47.250000000001094
51
129.81859202882427
0
ARC
8
0
10
84.996402406504
20
88.39341166775664
40
1
50
-67.12698324006334
51
-47.84884377611961
0
ARC
8
0
10
85.18905033553696
20
87.99126606168252
40
0.555
50
-132.74999999999946
51
-69.31505117707795
0
ARC
8
0
10
85.18905033553696
20
87.99126606168252
40
0.555
50
163.815051177078
51
-132.74999999999946
0
ARC
8
0
10
85.6050712432226
20
87.83076398252526
40
1
50
142.3488437761169
51
161.6269832400615
0
ARC
8
0
10
84.69093417483757
20
88.52833465824494
40
0.15
50
-35.31859202882252
51
47.25000000000478
0
ARC
8
0
10
50.93391436626551
20
50.93445740158737
40
50.675581789406515
50
48.07563506681594
51
48.67436493318732
0
ARC
8
0
10
84.29949579025296
20
88.87617546738173
40
0.15
50
49.50000000000296
51
132.0685920288295
0
ARC
8
0
10
83.49931506376132
20
89.70198551356118
40
1
50
-64.87698324006321
51
-45.59884377612015
0
ARC
8
0
10
83.70760263062547
20
89.30771326937551
40
0.555
50
-130.49999999999972
51
-67.06505117707754
0
ARC
8
0
10
83.70760263062547
20
89.30771326937553
40
0.555
50
166.06505117707846
51
-130.49999999999875
0
ARC
8
0
10
84.12960408332486
20
89.16366783569227
40
1
50
144.59884377612
51
163.87698324006377
0
ARC
8
0
10
83.18878528528286
20
89.82481185681807
40
0.15
50
-33.06859202882638
51
49.50000000000296
0
ARC
8
0
10
50.933719610366786
20
50.93462373883884
40
50.675581789406515
50
50.325635066811486
51
50.924364933182815
0
ARC
8
0
10
82.7839925194266
20
90.1570166944372
40
0.15
50
51.749999999996874
51
134.31859202883325
0
ARC
8
0
10
81.95200755301094
20
90.95077512310299
40
1
50
-62.62698324006327
51
-43.34884377611992
0
ARC
8
0
10
82.17561359337518
20
90.56498418002886
40
0.555
50
-128.24999999999866
51
-64.81505117707654
0
ARC
8
0
10
82.17561359337519
20
90.56498418002884
40
0.555
50
168.31505117707616
51
-128.25000000000074
0
ARC
8
0
10
82.60294489543551
20
90.43761749943765
40
1
50
146.84884377611672
51
166.12698324006064
0
ARC
8
0
10
81.63689504213126
20
91.06131542980977
40
0.15
50
-30.81859202882734
51
51.749999999996874
0
ARC
8
0
10
50.933518474254726
20
50.934782301764265
40
50.675581789406515
50
52.57563506681673
51
53.17436493318813
0
ARC
8
0
10
81.21937205610824
20
91.3773720601303
40
0.15
50
53.999999999999616
51
136.56859202882688
0
ARC
8
0
10
80.35686571028333
20
92.13785495331817
40
1
50
-60.37698324006223
51
-41.09884377611932
0
ARC
8
0
10
80.59544543984072
20
91.76114017302713
40
0.555
50
-125.99999999999906
51
-62.565051177077166
0
ARC
8
0
10
80.59544543984072
20
91.76114017302714
40
0.555
50
170.56505117707974
51
-125.9999999999982
0
ARC
8
0
10
81.02744767736782
20
91.65064863571781
40
1
50
149.0988437761193
51
168.37698324006382
0
ARC
8
0
10
80.03765634765438
20
92.23593877833403
40
0.15
50
-28.568592028825538
51
53.999999999999616
0
ARC
8
0
10
50.933311268054844
20
50.9349328458806
40
50.675581789406515
50
54.82563506681467
51
55.42436493318604
0
ARC
8
0
10
79.60804693164647
20
92.53535986494026
40
0.15
50
56.25000000000892
51
138.8185920288273
0
ARC
8
0
10
78.71634912868188
20
93.26139461314985
40
1
50
-58.126983240065194
51
-38.84884377612155
0
ARC
8
0
10
78.96953467478198
20
92.89433686252825
40
0.555
50
-123.74999999999943
51
-60.31505117707751
0
ARC
8
0
10
78.96953467478198
20
92.89433686252825
40
0.555
50
172.8150511770785
51
-123.74999999999943
0
ARC
8
0
10
79.40554173163771
20
92.80089083844268
40
1
50
151.34884377611715
51
170.6269832400614
0
ARC
8
0
10
78.39353511200403
20
93.34687071832585
40
0.15
50
-26.318592028827425
51
56.25000000000139
0
ARC
8
0
10
50.93309831127043
20
50.93507513905476
40
50.675581789406515
50
57.07563506681432
51
57.6743649331857
0
ARC
8
0
10
77.95250169259195
20
93.62919457560473
40
0.15
50
58.49999999999943
51
141.06859202883055
0
ARC
8
0
10
77.03298736586827
20
94.31966168587829
40
1
50
-55.876983240063616
51
-36.59884377612015
0
ARC
8
0
10
77.30038833475031
20
93.96282694137274
40
0.555
50
-121.49999999999845
51
-58.065051177076825
0
ARC
8
0
10
77.30038833475032
20
93.96282694137273
40
0.555
50
175.0650511770759
51
-121.50000000000045
0
ARC
8
0
10
77.73972791965545
20
93.88657051750705
40
1
50
153.59884377612033
51
172.87698324006374
0
ARC
8
0
10
76.70706645095727
20
94.39239827325571
40
0.15
50
-24.06859202882976
51
58.49999999999943
0
ARC
8
0
10
50.93287993226396
20
50.935208961882026
40
50.675581789406515
50
59.32563506681372
51
59.924364933185075
0
ARC
8
0
10
76.25528906970705
20
94.65718957828254
40
0.15
50
60.74999999999666
51
143.3185920288319
0
ARC
8
0
10
75.30937604366835
20
95.31102440038208
40
1
50
-53.62698324006228
51
-34.34884377611853
0
ARC
8
0
10
75.59058012241994
20
94.96496287530472
40
0.555
50
-119.25000000000031
51
-55.81505117707748
0
ARC
8
0
10
75.59058012241994
20
94.96496287530472
40
0.555
50
177.31505117707735
51
-119.25000000000031
0
ARC
8
0
10
76.03257480557849
20
94.90601363353726
40
1
50
155.84884377611795
51
175.12698324006192
0
ARC
8
0
10
74.98085077695178
20
95.37090931541526
40
0.15
50
-21.81859202883388
51
60.74999999999666
0
ARC
8
0
10
50.93265646776264
20
50.93533410801588
40
50.675581789406515
50
61.57563506681617
51
62.174364933187576
0
ARC
8
0
10
74.51902604183978
20
95.61775977919012
40
0.15
50
63.000000000001144
51
145.56859202882472
0
ARC
8
0
10
73.5481728458111
20
96.2339541472109
40
1
50
-51.37698324006214
51
-32.09884377611767
0
ARC
8
0
10
73.84274643812485
20
95.89919944335034
40
0.555
50
-117.00000000000121
51
-53.56505117707812
0
ARC
8
0
10
73.84274643812485
20
95.89919944335034
40
0.555
50
179.56505117707846
51
-117.00000000000121
0
ARC
8
0
10
74.28671469577183
20
95.85764827913923
40
1
50
158.09884377611948
51
177.3769832400636
0
ARC
8
0
10
73.21754978943821
20
96.28089505170134
40
0.15
50
-19.56859202882063
51
63.0000000000036
0
ARC
8
0
10
50.93242826232525
20
50.935450384493926
40
50.675581789406515
50
63.82563506681242
51
64.42436493318378
0
ARC
8
0
10
72.7463898007323
20
96.50942404870123
40
0.15
50
65.24999999999864
51
147.81859202883234
0
ARC
8
0
10
71.75209341997308
20
97.08702783559042
40
1
50
-49.12698324006373
51
-29.84884377612013
0
ARC
8
0
10
72.05958231472076
20
96.7640961204365
40
0.555
50
-114.75000000000146
51
-51.315051177079745
0
ARC
8
0
10
72.05958231472074
20
96.7640961204365
40
0.555
50
-178.18494882292052
51
-114.75000000000011
0
ARC
8
0
10
72.50483957998232
20
96.7400071026652
40
1
50
160.34884377611772
51
179.6269832400615
0
ARC
8
0
10
71.41988237073278
20
97.12095235006576
40
0.15
50
-17.318592028829002
51
65.24999999999864
0
ARC
8
0
10
50.93219566783671
20
50.9355576120218
40
50.675581789406515
50
66.07563506681339
51
66.6743649331848
0
ARC
8
0
10
70.94011362298514
20
97.33080750514138
40
0.15
50
67.50000000000209
51
150.06859202882873
0
ARC
8
0
10
69.92390719044643
20
97.8689300877251
40
1
50
-46.87698324006132
51
-27.598843776117416
0
ARC
8
0
10
70.24383726203959
20
97.55831929857607
40
0.555
50
-112.49999999999888
51
-49.065051177077564
0
ARC
8
0
10
70.24383726203959
20
97.55831929857607
40
0.555
50
-175.93494882292245
51
-112.49999999999888
0
ARC
8
0
10
70.6896969804856
20
97.55172957076402
40
1
50
162.59884377611735
51
-178.1230167599392
0
ARC
8
0
10
69.59062039369753
20
97.88978590304296
40
0.15
50
-15.06859202882815
51
67.5000000000071
0
ARC
8
0
10
50.931959042936356
20
50.93565562526469
40
50.675581789406515
50
68.32563506681352
51
68.92436493318489
0
ARC
8
0
10
69.10298265554287
20
98.08064363475577
40
0.15
50
69.74999999999991
51
152.31859202882345
0
ARC
8
0
10
68.06643308788757
20
98.57845526701564
40
1
50
-44.626983240061875
51
-25.348843776117572
0
ARC
8
0
10
68.39831102734482
20
98.28064434319482
40
0.555
50
-110.2500000000003
51
-46.815051177080214
0
ARC
8
0
10
68.3983110273448
20
98.28064434319482
40
0.555
50
-173.68494882292006
51
-110.24999999999893
0
ARC
8
0
10
68.84408571560597
20
98.29156406622468
40
1
50
164.8488437761175
51
-175.8730167599383
0
ARC
8
0
10
67.73258444771352
20
98.58621022502044
40
0.15
50
-12.818592028830746
51
69.74999999999802
0
ARC
8
0
10
50.931718752484464
20
50.93574427309255
40
50.675581789406515
50
70.5756350668149
51
71.17436493318628
0
ARC
8
0
10
67.23782962119941
20
98.75777624458179
40
0.15
50
72.00000000000085
51
154.56859202882842
0
ARC
8
0
10
66.18253520273022
20
99.21450933706295
40
1
50
-42.37698324006165
51
-23.098843776118215
0
ARC
8
0
10
66.52584927832389
20
98.9299574814291
40
0.555
50
-108.00000000000239
51
-44.56505117707991
0
ARC
8
0
10
66.52584927832388
20
98.9299574814291
40
0.555
50
-171.43494882292126
51
-108.00000000000097
0
ARC
8
0
10
66.9708515841413
20
98.95836981787944
40
1
50
167.0988437761182
51
-173.62301675993814
0
ARC
8
0
10
65.84863948953634
20
99.2091514801715
40
0.15
50
-10.568592028823364
51
72.00000000000085
0
ARC
8
0
10
50.931475166986026
20
50.935823418818664
40
50.675581789406515
50
72.82563506681109
51
73.42436493318247
0
ARC
8
0
10
65.34753045074471
20
99.36116124521463
40
0.15
50
74.25000000000432
51
156.81859202883035
0
ARC
8
0
10
64.27511836896565
20
99.77611154859315
40
1
50
-40.12698324006267
51
-20.848843776118382
0
ARC
8
0
10
64.62933921527504
20
99.5052575194829
40
0.555
50
-105.74999999999991
51
-42.31505117707689
0
ARC
8
0
10
64.62933921527505
20
99.5052575194829
40
0.555
50
-169.1849488229241
51
-105.75000000000134
0
ARC
8
0
10
65.07288297734756
20
99.55111865959033
40
1
50
169.34884377611982
51
-171.3730167599364
0
ARC
8
0
10
63.941690425740425
20
99.75764913823247
40
0.15
50
-8.318592028829782
51
74.24999999999909
0
ARC
8
0
10
50.931228662043566
20
50.93589294040254
40
50.675581789406515
50
75.07563506681554
51
75.67436493318692
0
ARC
8
0
10
63.434999848487976
20
99.88986826071749
40
0.15
50
76.50000000000368
51
159.06859202882768
0
ARC
8
0
10
62.34712368509917
20
100.26239595170178
40
1
50
-37.87698324006259
51
-18.59884377611904
0
ARC
8
0
10
62.711705119253736
20
100.00565738639615
40
0.555
50
-103.49999999999832
51
-40.06505117707645
0
ARC
8
0
10
62.71170511925375
20
100.00565738639614
40
0.555
50
-166.93494882292367
51
-103.50000000000009
0
ARC
8
0
10
63.15310642524894
20
100.06889661560659
40
1
50
171.59884377611698
51
-169.12301675993913
0
ARC
8
0
10
62.01467763356374
20
100.23085745557043
40
0.15
50
-6.0685920288299
51
76.50000000000368
0
ARC
8
0
10
50.930979617739126
20
50.93595273065014
40
50.675581789406515
50
77.32563506681556
51
77.92436493318692
0
ARC
8
0
10
61.50318679799493
20
100.34308206319395
40
0.15
50
78.75000000000082
51
161.3185920288276
0
ARC
8
0
10
60.401523979189484
20
100.67261273108582
40
1
50
-35.626983240061634
51
-16.348843776118606
0
ARC
8
0
10
60.775903843043174
20
100.43038550184376
40
0.555
50
-101.24999999999996
51
-37.81505117707728
0
ARC
8
0
10
60.775903843043174
20
100.43038550184376
40
0.555
50
-164.68494882292228
51
-101.24999999999996
0
ARC
8
0
10
61.2144820841406
20
100.51090530984952
40
1
50
173.848843776118
51
-166.8730167599378
0
ARC
8
0
10
60.07057242705913
20
100.62804677925891
40
0.15
50
-3.818592028822694
51
78.75000000000082
0
ARC
8
0
10
50.9307284180829
20
50.93600269736846
40
50.675581789406515
50
79.57563506681348
51
80.17436493318485
0
ARC
8
0
10
59.55507001496882
20
100.72010382981018
40
0.15
50
80.99999999999916
51
163.56859202883106
0
ARC
8
0
10
58.44131922496322
20
101.00612936220465
40
1
50
-33.376983240063524
51
-14.098843776120344
0
ARC
8
0
10
58.824920251901545
20
100.77878696585661
40
0.555
50
-99.00000000000071
51
-35.56505117707769
0
ARC
8
0
10
58.824920251901545
20
100.77878696585661
40
0.555
50
-162.43494882292202
51
-99.00000000000071
0
ARC
8
0
10
59.25999917224222
20
100.87646319694991
40
1
50
176.09884377611797
51
-164.62301675993788
0
ARC
8
0
10
58.112372475543495
20
100.94860467214966
40
0.15
50
-1.5685920288282498
51
81.00000000000183
0
ARC
8
0
10
50.93047545041231
20
50.936042763511395
40
50.675581789406515
50
81.82563506681592
51
82.4243649331873
0
ARC
8
0
10
57.593653354286744
20
101.02035222032913
40
0.15
50
83.249999999999
51
165.81859202882558
0
ARC
8
0
10
56.46953191607291
20
101.26243158658673
40
1
50
-31.12698324006213
51
-11.84884377611828
0
ARC
8
0
10
56.86176262111629
20
101.05032456862985
40
0.555
50
-96.74999999999989
51
-33.31505117707821
0
ARC
8
0
10
56.8617626211163
20
101.05032456862985
40
0.555
50
-160.18494882292256
51
-96.75000000000063
0
ARC
8
0
10
57.29267136054019
20
101.16500661314208
40
1
50
178.3488437761193
51
-162.37301675993692
0
ARC
8
0
10
56.14309718140887
20
101.1920368572063
40
0.15
50
0.681407971171293
51
83.249999999999
0
ARC
8
0
10
50.930221104777615
20
50.9360728673011
40
50.675581789406515
50
84.07563506681429
51
84.67436493318564
0
ARC
8
0
10
55.62196117827317
20
101.24336427349508
40
0.15
50
85.50000000000027
51
168.06859202882413
0
ARC
8
0
10
54.48920240563088
20
101.44112420477933
40
1
50
-28.876983240062284
51
-9.598843776118144
0
ARC
8
0
10
54.889457997461584
20
101.24457961886142
40
0.555
50
-94.4999999999994
51
-31.065051177077446
0
ARC
8
0
10
54.8894579974616
20
101.24457961886142
40
0.555
50
-157.93494882292214
51
-94.50000000000087
0
ARC
8
0
10
55.31553212592541
20
101.37609064539225
40
1
50
-179.40115622387995
51
-160.12301675993663
0
ARC
8
0
10
54.165783024422915
20
101.3579679796438
40
0.15
50
2.931407971172032
51
85.50000000000027
0
ARC
8
0
10
50.92996577336592
20
50.93609296231899
40
50.675581789406515
50
86.3256350668137
51
86.92436493318509
0
ARC
8
0
10
53.6430336933524
20
101.38879612088624
40
0.15
50
87.74999999999912
51
170.31859202882413
0
ARC
8
0
10
52.50338421820507
20
101.54193168571703
40
1
50
-26.626983240061957
51
-7.34884377611814
0
ARC
8
0
10
52.91104753171162
20
101.36125258934376
40
0.555
50
-92.24999999999967
51
-28.81505117707752
0
ARC
8
0
10
52.911047531711624
20
101.36125258934376
40
0.555
50
-155.68494882292288
51
-92.2500000000004
0
ARC
8
0
10
53.33163007379174
20
101.50938981742239
40
1
50
-177.15115622388103
51
-157.87301675993717
0
ARC
8
0
10
52.18347887969711
20
101.44614218569832
40
0.15
50
5.181407971174656
51
87.74999999999912
0
ARC
8
0
10
50.92970984987939
20
50.936103017580145
40
50.675581789406515
50
88.57563506681383
51
89.17436493318522
0
ARC
8
0
10
51.65992226227067
20
101.4564235171351
40
0.15
50
90
51
172.56859202883228
0
ARC
8
0
10
50.515139341505545
20
101.56469859157093
40
1
50
-24.37698324006254
51
-5.0988437761189065
0
ARC
8
0
10
50.92958178940652
20
101.40016357881304
40
0.555
50
-90.00000000000074
51
-26.565051177079628
0
ARC
8
0
10
50.929581789406505
20
101.40016357881304
40
0.555
50
-153.43494882292038
51
-89.99999999999928
0
ARC
8
0
10
51.34402423730748
20
101.56469859157093
40
1
50
-174.90115622388112
51
-155.62301675993749
0
ARC
8
0
10
50.199241316542356
20
101.4564235171351
40
0.15
50
7.431407971167711
51
90
0
ARC
8
0
10
50.929453728933304
20
50.936103017580145
40
50.675581789406515
50
90.82563506681443
51
91.42436493318581
0
ARC
8
0
10
49.67568469911592
20
101.44614218569832
40
0.15
50
92.25000000000091
51
174.81859202882532
0
ARC
8
0
10
48.52753350502129
20
101.50938981742239
40
1
50
-22.126983240062817
51
-2.8488437761189753
0
ARC
8
0
10
48.94811604710141
20
101.36125258934376
40
0.555
50
-87.7499999999996
51
-24.315051177077148
0
ARC
8
0
10
48.948116047101415
20
101.36125258934376
40
0.555
50
-151.18494882292248
51
-87.75000000000033
0
ARC
8
0
10
49.35577936060796
20
101.54193168571703
40
1
50
-172.65115622388186
51
-153.37301675993803
0
ARC
8
0
10
48.21612988546063
20
101.38879612088624
40
0.15
50
9.681407971175862
51
92.25000000000091
0
ARC
8
0
10
50.92919780544676
20
50.936092962318966
40
50.675581789406515
50
93.07563506681453
51
93.6743649331859
0
ARC
8
0
10
47.69338055439012
20
101.3579679796438
40
0.15
50
94.49999999999973
51
177.06859202882796
0
ARC
8
0
10
46.543631452887624
20
101.37609064539224
40
1
50
-19.87698324006248
51
-0.5988437761192409
0
ARC
8
0
10
46.96970558135144
20
101.24457961886142
40
0.555
50
-85.49999999999987
51
-22.06505117707788
0
ARC
8
0
10
46.96970558135145
20
101.24457961886142
40
0.555
50
-148.93494882292256
51
-85.5000000000006
0
ARC
8
0
10
47.369961173182155
20
101.44112420477933
40
1
50
-170.40115622388186
51
-151.1230167599377
0
ARC
8
0
10
46.237202400539864
20
101.24336427349508
40
0.15
50
11.931407971175908
51
94.49999999999973
0
ARC
8
0
10
50.92894247403499
20
50.93607286730106
40
50.675581789406515
50
95.32563506681387
51
95.92436493318529
0
ARC
8
0
10
45.71606639740415
20
101.1920368572063
40
0.15
50
96.75000000000102
51
179.31859202882873
0
ARC
8
0
10
44.56649221827283
20
101.16500661314208
40
1
50
-17.626983240063083
51
1.6511562238806967
0
ARC
8
0
10
44.99740095769672
20
101.05032456862985
40
0.555
50
-83.24999999999939
51
-19.81505117707745
0
ARC
8
0
10
44.997400957696726
20
101.05032456862985
40
0.555
50
-146.6849488229218
51
-83.25000000000013
0
ARC
8
0
10
45.38963166274011
20
101.26243158658673
40
1
50
-168.15115622388174
51
-148.87301675993788
0
ARC
8
0
10
44.265510224526274
20
101.02035222032913
40
0.15
50
14.18140797117441
51
96.74999999999834
0
ARC
8
0
10
50.92868812840035
20
50.936042763511345
40
50.675581789406515
50
97.57563506681228
51
98.17436493318367
0
ARC
8
0
10
43.74679110326953
20
100.94860467214966
40
0.15
50
98.99999999999818
51
-178.43140797117175
0
ARC
8
0
10
42.59916440657081
20
100.87646319694991
40
1
50
-15.376983240062122
51
3.9011562238820043
0
ARC
8
0
10
43.03424332691148
20
100.77878696585661
40
0.555
50
-81.00000000000003
51
-17.565051177077976
0
ARC
8
0
10
43.03424332691148
20
100.77878696585661
40
0.555
50
-144.4349488229223
51
-81.00000000000003
0
ARC
8
0
10
43.4178443538498
20
101.00612936220465
40
1
50
-165.90115622387967
51
-146.62301675993646
0
ARC
8
0
10
42.304093563844205
20
100.72010382981018
40
0.15
50
16.431407971168934
51
99.00000000000085
0
ARC
8
0
10
50.92843516072879
20
50.936002697368224
40
50.675581789406515
50
99.82563506681365
51
100.42436493318499
0
ARC
8
0
10
41.78859115175391
20
100.62804677925892
40
0.15
50
101.24999999999919
51
-176.18140797117732
0
ARC
8
0
10
40.64468149467245
20
100.51090530984953
40
1
50
-13.126983240062213
51
6.1511562238820225
0
ARC
8
0
10
41.08325973576987
20
100.43038550184377
40
0.555
50
-78.75000000000004
51
-15.315051177077741
0
ARC
8
0
10
41.08325973576988
20
100.43038550184377
40
0.555
50
-142.18494882292273
51
-78.75000000000077
0
ARC
8
0
10
41.457639599623555
20
100.67261273108585
40
1
50
-163.65115622388052
51
-144.37301675993723
0
ARC
8
0
10
40.35597678081812
20
100.34308206319396
40
0.15
50
18.681407971172437
51
101.24999999999919
0
ARC
8
0
10
50.92818396107346
20
50.93595273065006
40
50.675581789406515
50
102.07563506681255
51
102.67436493318394
0
ARC
8
0
10
39.844485945249296
20
100.23085745557044
40
0.15
50
103.49999999999632
51
-173.93140797117013
0
ARC
8
0
10
38.706057153564096
20
100.0688966156066
40
1
50
-10.876983240060852
51
8.401156223883014
0
ARC
8
0
10
39.14745845955929
20
100.00565738639615
40
0.555
50
-76.49999999999991
51
-13.065051177076356
0
ARC
8
0
10
39.1474584595593
20
100.00565738639617
40
0.555
50
-139.93494882292356
51
-76.50000000000168
0
ARC
8
0
10
39.51203989371387
20
100.26239595170179
40
1
50
-161.40115622388097
51
-142.1230167599374
0
ARC
8
0
10
38.42416373032506
20
99.8898682607175
40
0.15
50
20.931407971172344
51
103.49999999999632
0
ARC
8
0
10
50.927934916770226
20
50.935892940402745
40
50.675581789406515
50
104.32563506681397
51
104.92436493318537
0
ARC
8
0
10
37.9174731530726
20
99.75764913823247
40
0.15
50
105.74999999999832
51
-171.68140797117022
0
ARC
8
0
10
36.786280601465464
20
99.55111865959032
40
1
50
-8.626983240062717
51
10.651156223881001
0
ARC
8
0
10
37.229824363537986
20
99.5052575194829
40
0.555
50
-74.25000000000009
51
-10.815051177076072
0
ARC
8
0
10
37.229824363537986
20
99.5052575194829
40
0.555
50
-137.6849488229231
51
-74.25000000000009
0
ARC
8
0
10
37.58404520984739
20
99.77611154859314
40
1
50
-159.15115622388254
51
-139.87301675993848
0
ARC
8
0
10
36.51163312806832
20
99.36116124521463
40
0.15
50
23.181407971169644
51
105.74999999999832
0
ARC
8
0
10
50.92768841182683
20
50.93582341881861
40
50.675581789406515
50
106.57563506681731
51
107.1743649331887
0
ARC
8
0
10
36.01052408927669
20
99.2091514801715
40
0.15
50
107.99999999999916
51
-169.43140797117613
0
ARC
8
0
10
34.88831199467173
20
98.95836981787947
40
1
50
-6.376983240063492
51
12.901156223880136
0
ARC
8
0
10
35.33331430048916
20
98.9299574814291
40
0.555
50
-71.99999999999973
51
-8.565051177078773
0
ARC
8
0
10
35.33331430048914
20
98.9299574814291
40
0.555
50
-135.4349488229201
51
-71.99999999999834
0
ARC
8
0
10
35.676628376082796
20
99.21450933706296
40
1
50
-156.9011562238809
51
-137.6230167599372
0
ARC
8
0
10
34.621333957613615
20
98.75777624458179
40
0.15
50
25.43140797117161
51
107.99999999999916
0
ARC
8
0
10
50.92744482632826
20
50.93574427309245
40
50.675581789406515
50
108.82563506681338
51
109.42436493318475
0
ARC
8
0
10
34.126579131099504
20
98.58621022502044
40
0.15
50
110.25000000000199
51
-167.18140797116928
0
ARC
8
0
10
33.01507786320705
20
98.29156406622468
40
1
50
-4.126983240061689
51
15.151156223882428
0
ARC
8
0
10
33.46085255146823
20
98.28064434319482
40
0.555
50
-69.7500000000004
51
-6.315051177079998
0
ARC
8
0
10
33.46085255146821
20
98.28064434319481
40
0.555
50
-133.1849488229208
51
-69.74999999999783
0
ARC
8
0
10
33.79273049092545
20
98.57845526701564
40
1
50
-154.65115622388242
51
-135.37301675993814
0
ARC
8
0
10
32.75618092327014
20
98.08064363475577
40
0.15
50
27.68140797117529
51
110.24999999999756
0
ARC
8
0
10
50.927204535876115
20
50.935655625264474
40
50.675581789406515
50
111.07563506681444
51
111.67436493318584
0
ARC
8
0
10
32.268543185115504
20
97.88978590304296
40
0.15
50
112.50000000000043
51
-164.93140797117255
0
ARC
8
0
10
31.169466598327418
20
97.55172957076404
40
1
50
-1.876983240061636
51
17.401156223881753
0
ARC
8
0
10
31.615326316773434
20
97.55831929857607
40
0.555
50
-67.50000000000013
51
-4.06505117707756
0
ARC
8
0
10
31.615326316773434
20
97.55831929857607
40
0.555
50
-130.93494882292217
51
-67.50000000000013
0
ARC
8
0
10
31.935256388366586
20
97.86893008772512
40
1
50
-152.4011562238816
51
-133.12301675993754
0
ARC
8
0
10
30.919049955827887
20
97.33080750514138
40
0.15
50
29.93140797117128
51
112.49999999999916
0
ARC
8
0
10
50.92696791097603
20
50.93555761202168
40
50.675581789406515
50
113.32563506681488
51
113.92436493318624
0
ARC
8
0
10
30.439281208080274
20
97.12095235006578
40
0.15
50
114.75000000000135
51
-162.68140797117098
0
ARC
8
0
10
29.354323998830726
20
96.74000710266525
40
1
50
0.3730167599368737
51
19.651156223880562
0
ARC
8
0
10
29.799581264092296
20
96.7640961204365
40
0.555
50
-65.2499999999999
51
-1.8150511770780127
0
ARC
8
0
10
29.799581264092296
20
96.7640961204365
40
0.555
50
-128.68494882292234
51
-65.2499999999999
0
ARC
8
0
10
30.107070158839974
20
97.08702783559042
40
1
50
-150.15115622388078
51
-130.87301675993743
0
ARC
8
0
10
29.112773778080744
20
96.50942404870125
40
0.15
50
32.18140797116768
51
114.75000000000014
0
ARC
8
0
10
50.92673531648737
20
50.93545038449374
40
50.675581789406515
50
115.57563506681569
51
116.17436493318709
0
ARC
8
0
10
28.641613789374812
20
96.28089505170135
40
0.15
50
117.00000000000007
51
-160.43140797117337
0
ARC
8
0
10
27.572448883041204
20
95.8576482791392
40
1
50
2.623016759938045
51
21.901156223882268
0
ARC
8
0
10
28.016417140688183
20
95.89919944335035
40
0.555
50
-63.0000000000001
51
0.4349488229200736
0
ARC
8
0
10
28.016417140688176
20
95.89919944335034
40
0.555
50
-126.43494882292129
51
-62.999999999998785
0
ARC
8
0
10
28.310990733001937
20
96.2339541472109
40
1
50
-147.90115622388223
51
-128.62301675993788
0
ARC
8
0
10
27.340137536973256
20
95.61775977919012
40
0.15
50
34.43140797117528
51
117.00000000000126
0
ARC
8
0
10
50.9265071110505
20
50.93533410801594
40
50.675581789406515
50
117.82563506681258
51
118.42436493318397
0
ARC
8
0
10
26.878312801861252
20
95.37090931541525
40
0.15
50
119.2499999999995
51
-158.18140797117266
0
ARC
8
0
10
25.826588773234526
20
94.90601363353726
40
1
50
4.8730167599380705
51
24.1511562238819
0
ARC
8
0
10
26.26858345639309
20
94.96496287530472
40
0.555
50
-60.750000000000036
51
2.684948822922658
0
ARC
8
0
10
26.26858345639309
20
94.96496287530472
40
0.555
50
-124.18494882292254
51
-60.750000000000036
0
ARC
8
0
10
26.54978753514467
20
95.31102440038208
40
1
50
-145.6511562238815
51
-126.37301675993757
0
ARC
8
0
10
25.603874509105985
20
94.65718957828253
40
0.15
50
36.681407971174906
51
119.2499999999995
0
ARC
8
0
10
50.926283646548434
20
50.935208961881656
40
50.675581789406515
50
120.07563506681409
51
120.67436493318547
0
ARC
8
0
10
25.152097127855754
20
94.39239827325571
40
0.15
50
121.4999999999994
51
-155.93140797117135
0
ARC
8
0
10
24.11943565915758
20
93.88657051750701
40
1
50
7.123016759938674
51
26.40115622388225
0
ARC
8
0
10
24.558775244062705
20
93.96282694137274
40
0.555
50
-58.49999999999987
51
4.934948822922618
0
ARC
8
0
10
24.55877524406271
20
93.96282694137274
40
0.555
50
-121.93494882292258
51
-58.50000000000019
0
ARC
8
0
10
24.826176212944752
20
94.31966168587829
40
1
50
-143.40115622387964
51
-124.12301675993605
0
ARC
8
0
10
23.906661886221077
20
93.62919457560473
40
0.15
50
38.93140797117031
51
121.4999999999994
0
ARC
8
0
10
50.92606526754298
20
50.935075139055
40
50.675581789406515
50
122.32563506681481
51
122.92436493318621
0
ARC
8
0
10
23.465628466808997
20
93.34687071832583
40
0.15
50
123.74999999999973
51
-153.681407971172
0
ARC
8
0
10
22.453621847175302
20
92.8008908384427
40
1
50
9.3730167599369
51
28.65115622388094
0
ARC
8
0
10
22.889628904031035
20
92.89433686252825
40
0.555
50
-56.24999999999997
51
7.184948822920026
0
ARC
8
0
10
22.88962890403103
20
92.89433686252823
40
0.555
50
-119.68494882292156
51
-56.24999999999885
0
ARC
8
0
10
23.142814450131162
20
93.26139461314982
40
1
50
-141.15115622387964
51
-121.87301675993632
0
ARC
8
0
10
22.25111664716656
20
92.53535986494026
40
0.15
50
41.18140797116772
51
123.74999999999748
0
ARC
8
0
10
50.92585231075728
20
50.93493284587997
40
50.675581789406515
50
124.57563506681271
51
125.17436493318411
0
ARC
8
0
10
21.82150723115865
20
92.23593877833403
40
0.15
50
126.00000000000148
51
-151.43140797117576
0
ARC
8
0
10
20.83171590144521
20
91.65064863571781
40
1
50
11.623016759936208
51
30.901156223880925
0
ARC
8
0
10
21.26371813897231
20
91.76114017302713
40
0.555
50
-54.000000000000064
51
9.434948822921719
0
ARC
8
0
10
21.263718138972312
20
91.76114017302713
40
0.555
50
-117.43494882292283
51
-54.00000000000036
0
ARC
8
0
10
21.50229786852968
20
92.13785495331817
40
1
50
-138.9011562238803
51
-119.6230167599369
0
ARC
8
0
10
20.63979152270478
20
91.3773720601303
40
0.15
50
43.43140797117313
51
126.00000000000148
0
ARC
8
0
10
50.925645104558996
20
50.9347823017648
40
50.675581789406515
50
126.82563506681288
51
127.42436493318426
0
ARC
8
0
10
20.222268536681774
20
91.06131542980977
40
0.15
50
128.250000000001
51
-149.18140797117127
0
ARC
8
0
10
19.256218683377508
20
90.43761749943768
40
1
50
13.873016759937691
51
33.151156223881365
0
ARC
8
0
10
19.683549985437843
20
90.56498418002884
40
0.555
50
-51.75000000000015
51
11.684948822923918
0
ARC
8
0
10
19.68354998543785
20
90.56498418002886
40
0.555
50
-115.18494882292315
51
-51.75000000000163
0
ARC
8
0
10
19.90715602580207
20
90.95077512310299
40
1
50
-136.65115622387967
51
-117.37301675993604
0
ARC
8
0
10
19.07517105938643
20
90.15701669443719
40
0.15
50
45.68140797117345
51
128.24999999999656
0
ARC
8
0
10
50.92544396844427
20
50.93462373883722
40
50.675581789406515
50
129.0756350668143
51
129.67436493318567
0
ARC
8
0
10
18.670378293530156
20
89.82481185681807
40
0.15
50
130.49999999999912
51
-146.93140797117437
0
ARC
8
0
10
17.72955949548815
20
89.16366783569225
40
1
50
16.123016759936117
51
35.40115622388069
0
ARC
8
0
10
18.151560948187544
20
89.30771326937551
40
0.555
50
-49.49999999999916
51
13.934948822921465
0
ARC
8
0
10
18.151560948187548
20
89.30771326937551
40
0.555
50
-112.9349488229228
51
-49.499999999999446
0
ARC
8
0
10
18.35984851505169
20
89.70198551356118
40
1
50
-134.40115622387972
51
-115.12301675993628
0
ARC
8
0
10
17.55966778856005
20
88.87617546738173
40
0.15
50
47.931407971170515
51
130.4999999999981
0
ARC
8
0
10
50.925249212547925
20
50.93445740158774
40
50.675581789406515
50
131.3256350668133
51
131.92436493318468
0
ARC
8
0
10
17.16822940397546
20
88.52833465824496
40
0.15
50
132.74999999999991
51
-144.68140797117073
0
ARC
8
0
10
16.254092335590407
20
87.83076398252528
40
1
50
18.37301675993663
51
37.65115622388069
0
ARC
8
0
10
16.670113243276063
20
87.99126606168254
40
0.555
50
-47.250000000000014
51
16.18494882292069
0
ARC
8
0
10
16.670113243276056
20
87.99126606168252
40
0.555
50
-110.68494882292174
51
-47.24999999999847
0
ARC
8
0
10
16.862761172309025
20
88.39341166775662
40
1
50
-132.15115622388095
51
-112.87301675993737
0
ARC
8
0
10
16.09561850642336
20
87.5368233432988
40
0.15
50
50.18140797117366
51
132.7500000000009
0
ARC
8
0
10
50.92506113717265
20
50.93428354649909
40
50.675581789406515
50
133.57563506681475
51
134.17436493318615
0
ARC
8
0
10
15.718138072727461
20
87.17388290796004
40
0.15
50
135.00000000000097
51
-142.43140797117377
0
ARC
8
0
10
14.832092267100835
20
86.44096118106754
40
1
50
20.62301675993809
51
39.90115622388167
0
ARC
8
0
10
15.241491155686894
20
86.61767242312614
40
0.555
50
-45
51
18.43494882292236
0
ARC
8
0
10
15.24149115568689
20
86.61767242312614
40
0.555
50
-108.43494882292197
51
-44.99999999999974
0
ARC
8
0
10
15.4182023977455
20
87.0270713117122
40
1
50
-129.9011562238819
51
-110.6230167599381
0
ARC
8
0
10
14.685280670852991
20
86.14102550608558
40
0.15
50
52.43140797117197
51
135.00000000000048
0
ARC
8
0
10
50.924880032314235
20
50.934102441640704
40
50.675581789406515
50
135.82563506681436
51
136.42436493318573
0
ARC
8
0
10
14.322340235514236
20
85.76354507238969
40
0.15
50
137.25000000000247
51
-140.1814079711766
0
ARC
8
0
10
13.465751911056412
20
84.99640240650403
40
1
50
22.873016759936817
51
42.151156223880804
0
ARC
8
0
10
13.867897517130517
20
85.18905033553698
40
0.555
50
-42.74999999999958
51
20.684948822923367
0
ARC
8
0
10
13.867897517130519
20
85.18905033553699
40
0.555
50
-106.18494882292235
51
-42.75000000000079
0
ARC
8
0
10
14.0283995962878
20
85.60507124322262
40
1
50
-127.65115622388358
51
-108.37301675993938
0
ARC
8
0
10
13.330828920568097
20
84.6909341748376
40
0.15
50
54.68140797117637
51
137.25000000000296
0
ARC
8
0
10
50.92470617722527
20
50.93391436626508
40
50.675581789406515
50
138.07563506681527
51
138.67436493318667
0
ARC
8
0
10
12.982988111431295
20
84.29949579025298
40
0.15
50
139.50000000000207
51
-137.9314079711719
0
ARC
8
0
10
12.157178065251857
20
83.4993150637613
40
1
50
25.123016759938537
51
44.40115622388194
0
ARC
8
0
10
12.551450309437516
20
83.70760263062549
40
0.555
50
-40.5000000000006
51
22.934948822922397
0
ARC
8
0
10
12.55145030943752
20
83.70760263062549
40
0.555
50
-103.93494882292299
51
-40.50000000000084
0
ARC
8
0
10
12.695495743120771
20
84.12960408332488
40
1
50
-125.4011562238802
51
-106.12301675993652
0
ARC
8
0
10
12.034351721994957
20
83.18878528528288
40
0.15
50
56.93140797117249
51
139.5000000000025
0
ARC
8
0
10
50.924539839975004
20
50.933719610367774
40
50.675581789406515
50
140.3256350668129
51
140.92436493318425
0
ARC
8
0
10
11.70214688437583
20
82.7839925194266
40
0.15
50
141.74999999999605
51
-135.68140797116723
0
ARC
8
0
10
10.908388455710066
20
81.95200755301093
40
1
50
27.373016759937734
51
46.65115622388146
0
ARC
8
0
10
11.294179398784177
20
82.17561359337519
40
0.555
50
-38.249999999999346
51
25.1849488229219
0
ARC
8
0
10
11.294179398784173
20
82.17561359337519
40
0.555
50
-101.68494882292151
51
-38.24999999999911
0
ARC
8
0
10
11.421546079375387
20
82.60294489543551
40
1
50
-123.15115622388329
51
-103.87301675993918
0
ARC
8
0
10
10.797848149003274
20
81.63689504213126
40
0.15
50
59.18140797117384
51
141.74999999999773
0
ARC
8
0
10
50.92438127704772
20
50.93351847425335
40
50.675581789406515
50
142.57563506681478
51
143.17436493318615
0
ARC
8
0
10
10.481791518682726
20
81.21937205610826
40
0.15
50
143.99999999999963
51
-133.43140797117263
0
ARC
8
0
10
9.721308625494881
20
80.35686571028333
40
1
50
29.623016759938842
51
48.90115622388222
0
ARC
8
0
10
10.098023405785904
20
80.59544543984073
40
0.555
50
-36.00000000000034
51
27.434948822922667
0
ARC
8
0
10
10.0980234057859
20
80.59544543984073
40
0.555
50
-99.43494882292191
51
-36.00000000000013
0
ARC
8
0
10
10.208514943095235
20
81.02744767736782
40
1
50
-120.90115622388139
51
-101.62301675993753
0
ARC
8
0
10
9.623224800479
20
80.03765634765439
40
0.15
50
61.431407971170295
51
143.99999999999883
0
ARC
8
0
10
50.92423073293219
20
50.933311268054524
40
50.675581789406515
50
144.82563506681421
51
145.42436493318561
0
ARC
8
0
10
9.323803713872747
20
79.60804693164646
40
0.15
50
146.25000000000216
51
-131.1814079711768
0
ARC
8
0
10
8.597768965663185
20
78.71634912868186
40
1
50
31.87301675993658
51
51.151156223880584
0
ARC
8
0
10
8.964826716284774
20
78.96953467478197
40
0.555
50
-33.74999999999973
51
29.68494882292395
0
ARC
8
0
10
8.96482671628478
20
78.96953467478198
40
0.555
50
-97.18494882292336
51
-33.75000000000126
0
ARC
8
0
10
9.058272740370334
20
79.40554173163771
40
1
50
-118.65115622388285
51
-99.37301675993898
0
ARC
8
0
10
8.512292860487175
20
78.39353511200403
40
0.15
50
63.6814079711738
51
146.25000000000176
0
ARC
8
0
10
50.924088439758386
20
50.933098311270626
40
50.675581789406515
50
147.07563506681458
51
147.67436493318598
0
ARC
8
0
10
8.229969003208295
20
77.95250169259195
40
0.15
50
148.49999999999943
51
-128.93140797117053
0
ARC
8
0
10
7.53950189293475
20
77.03298736586827
40
1
50
34.12301675993667
51
53.401156223880676
0
ARC
8
0
10
7.896336637440287
20
77.30038833475031
40
0.555
50
-31.499999999998906
51
31.934948822923076
0
ARC
8
0
10
7.896336637440293
20
77.30038833475032
40
0.555
50
-94.93494882292303
51
-31.50000000000049
0
ARC
8
0
10
7.972593061305967
20
77.73972791965545
40
1
50
-116.40115622387948
51
-97.12301675993575
0
ARC
8
0
10
7.466765305557316
20
76.70706645095727
40
0.15
50
65.93140797116995
51
148.4999999999991
0
ARC
8
0
10
50.923954616931056
20
50.93287993226406
40
50.675581789406515
50
149.32563506681385
51
149.92436493318522
0
ARC
8
0
10
7.201974000530486
20
76.25528906970703
40
0.15
50
150.74999999999815
51
-126.68140797116921
0
ARC
8
0
10
6.54813917843094
20
75.30937604366834
40
1
50
36.37301675993773
51
55.65115622388139
0
ARC
8
0
10
6.894200703508297
20
75.59058012241992
40
0.555
50
-29.250000000000284
51
34.18494882292233
0
ARC
8
0
10
6.894200703508294
20
75.59058012241992
40
0.555
50
-92.68494882292192
51
-29.250000000000153
0
ARC
8
0
10
6.953149945275772
20
76.03257480557848
40
1
50
-114.15115622388231
51
-94.87301675993845
0
ARC
8
0
10
6.488254263397771
20
74.98085077695177
40
0.15
50
68.18140797116897
51
150.74999999999784
0
ARC
8
0
10
50.923829470796555
20
50.93265646776155
40
50.675581789406515
50
151.57563506681478
51
152.17436493318618
0
ARC
8
0
10
6.2414037996228995
20
74.51902604183978
40
0.15
50
153.0000000000019
51
-124.43140797117444
0
ARC
8
0
10
5.625209431602106
20
73.54817284581111
40
1
50
38.62301675993672
51
57.9011562238807
0
ARC
8
0
10
5.959964135462677
20
73.84274643812485
40
0.555
50
-26.999999999999243
51
36.43494882292206
0
ARC
8
0
10
5.95996413546268
20
73.84274643812485
40
0.555
50
-90.43494882292246
51
-26.99999999999937
0
ARC
8
0
10
6.0015152996737955
20
74.28671469577183
40
1
50
-111.90115622388073
51
-92.62301675993702
0
ARC
8
0
10
5.578268527111673
20
73.21754978943822
40
0.15
50
70.43140797117404
51
153.00000000000736
0
ARC
8
0
10
50.92371319431951
20
50.93242826232611
40
50.675581789406515
50
153.8256350668135
51
154.4243649331849
0
ARC
8
0
10
5.349739530111789
20
72.74638980073229
40
0.15
50
155.2499999999992
51
-122.18140797117113
0
ARC
8
0
10
4.77213574322261
20
71.75209341997306
40
1
50
40.873016759936704
51
60.15115622388071
0
ARC
8
0
10
5.095067458376519
20
72.05958231472074
40
0.555
50
-24.750000000000103
51
38.68494882292072
0
ARC
8
0
10
5.095067458376517
20
72.05958231472073
40
0.555
50
-88.18494882292124
51
-24.749999999998696
0
ARC
8
0
10
5.119156476147817
20
72.5048395799823
40
1
50
-109.65115622388261
51
-90.37301675993878
0
ARC
8
0
10
4.738211228747259
20
71.41988237073276
40
0.15
50
72.68140797117393
51
155.25000000000512
0
ARC
8
0
10
50.923605966791406
20
50.932195667837135
40
50.675581789406515
50
156.07563506681396
51
156.67436493318533
0
ARC
8
0
10
4.528356073671654
20
70.94011362298514
40
0.15
50
157.50000000000233
51
-119.93140797117277
0
ARC
8
0
10
3.99023349108791
20
69.92390719044644
40
1
50
43.123016759937705
51
62.40115622388145
0
ARC
8
0
10
4.300844280236957
20
70.24383726203959
40
0.555
50
-22.499999999998796
51
40.93494882292238
0
ARC
8
0
10
4.300844280236955
20
70.24383726203959
40
0.555
50
-85.93494882292181
51
-22.499999999998728
0
ARC
8
0
10
4.307434008049001
20
70.6896969804856
40
1
50
-107.40115622388295
51
-88.12301675993908
0
ARC
8
0
10
3.9693776757700636
20
69.59062039369753
40
0.15
50
74.93140797117414
51
157.50000000000787
0
ARC
8
0
10
50.92350795354838
20
50.931959042936484
40
50.675581789406515
50
158.32563506681367
51
158.92436493318502
0
ARC
8
0
10
3.778519944057249
20
69.10298265554289
40
0.15
50
159.74999999999915
51
-117.681407971174
0
ARC
8
0
10
3.2807083117973703
20
68.0664330878876
40
1
50
45.373016759937286
51
64.65115622388115
0
ARC
8
0
10
3.578519235618221
20
68.39831102734482
40
0.555
50
-20.25000000000046
51
43.18494882292262
0
ARC
8
0
10
3.5785192356182214
20
68.39831102734482
40
0.555
50
-83.68494882292273
51
-20.250000000000473
0
ARC
8
0
10
3.567599512588342
20
68.84408571560598
40
1
50
-105.15115622388241
51
-85.87301675993852
0
ARC
8
0
10
3.2729533537925954
20
67.73258444771353
40
0.15
50
77.18140797117223
51
159.74999999999886
0
ARC
8
0
10
50.92341930572022
20
50.93171875248376
40
50.675581789406515
50
160.57563506681404
51
161.17436493318544
0
ARC
8
0
10
3.1013873342312297
20
67.23782962119942
40
0.15
50
162.00000000000117
51
-115.4314079711733
0
ARC
8
0
10
2.6446542417500445
20
66.18253520273025
40
1
50
47.623016759936306
51
66.90115622388032
0
ARC
8
0
10
2.929206097383931
20
66.52584927832388
40
0.555
50
-17.999999999999517
51
45.43494882292211
0
ARC
8
0
10
2.929206097383931
20
66.52584927832388
40
0.555
50
-81.43494882292195
51
-17.999999999999517
0
ARC
8
0
10
2.9007937609335745
20
66.9708515841413
40
1
50
-102.90115622388174
51
-83.62301675993784
0
ARC
8
0
10
2.650012098641514
20
65.84863948953634
40
0.15
50
79.43140797117414
51
162.00000000000136
0
ARC
8
0
10
50.923340159995206
20
50.93147516698882
40
50.675581789406515
50
162.8256350668144
51
163.42436493318576
0
ARC
8
0
10
2.49800233359841
20
65.34753045074471
40
0.15
50
164.25000000000443
51
-113.18140797117232
0
ARC
8
0
10
2.0830520302198683
20
64.27511836896565
40
1
50
49.87301675993692
51
69.15115622388076
0
ARC
8
0
10
2.3539060593301193
20
64.62933921527504
40
0.555
50
-15.749999999999847
51
47.6849488229222
0
ARC
8
0
10
2.3539060593301198
20
64.62933921527504
40
0.555
50
-79.18494882292191
51
-15.749999999999861
0
ARC
8
0
10
2.3080449192227017
20
65.07288297734756
40
1
50
-100.65115622388004
51
-81.37301675993625
0
ARC
8
0
10
2.1015144405805724
20
63.94169042574042
40
0.15
50
81.68140797117213
51
164.24999999999625
0
ARC
8
0
10
50.923270638410166
20
50.93122866204231
40
50.675581789406515
50
165.07563506681407
51
165.67436493318547
0
ARC
8
0
10
1.9692953180955368
20
63.43499984848798
40
0.15
50
166.50000000000372
51
-110.93140797117275
0
ARC
8
0
10
1.5967676271112565
20
62.34712368509918
40
1
50
52.12301675993749
51
71.40115622388127
0
ARC
8
0
10
1.8535061924168739
20
62.71170511925376
40
0.555
50
-13.499999999999934
51
49.93494882292216
0
ARC
8
0
10
1.8535061924168739
20
62.71170511925376
40
0.555
50
-76.93494882292235
51
-13.499999999999934
0
ARC
8
0
10
1.7902669632064303
20
63.15310642524895
40
1
50
-98.40115622388275
51
-79.12301675993895
0
ARC
8
0
10
1.628306123242604
20
62.01467763356375
40
0.15
50
83.93140797117321
51
166.5000000000038
0
ARC
8
0
10
50.92321084816263
20
50.93097961773802
40
50.675581789406515
50
167.32563506681424
51
167.92436493318567
0
ARC
8
0
10
1.5160815156190706
20
61.50318679799492
40
0.15
50
168.75000000000082
51
-108.68140797117253
0
ARC
8
0
10
1.1865508477271978
20
60.40152397918948
40
1
50
54.37301675993765
51
73.65115622388144
0
ARC
8
0
10
1.4287780769692673
20
60.77590384304316
40
0.555
50
-11.249999999999982
51
52.18494882292253
0
ARC
8
0
10
1.428778076969268
20
60.77590384304317
40
0.555
50
-74.68494882292246
51
-11.250000000000716
0
ARC
8
0
10
1.348258268963501
20
61.21448208414059
40
1
50
-96.15115622388127
51
-76.87301675993756
0
ARC
8
0
10
1.2311167995541124
20
60.070572427059126
40
0.15
50
86.18140797117273
51
168.75000000000085
0
ARC
8
0
10
50.92316088144463
20
50.93072841808322
40
50.675581789406515
50
169.57563506681382
51
170.17436493318522
0
ARC
8
0
10
1.139059749002842
20
59.55507001496882
40
0.15
50
170.99999999999923
51
-106.43140797117253
0
ARC
8
0
10
0.853034216608394
20
58.44131922496322
40
1
50
56.623016759937094
51
75.90115622388095
0
ARC
8
0
10
1.0803766129564147
20
58.824920251901545
40
0.555
50
-8.999999999999876
51
54.43494882292218
0
ARC
8
0
10
1.0803766129564156
20
58.82492025190155
40
0.555
50
-72.43494882292251
51
-9.000000000000615
0
ARC
8
0
10
0.9827003818631073
20
59.25999917224222
40
1
50
-93.9011562238815
51
-74.62301675993771
0
ARC
8
0
10
0.910558906663376
20
58.112372475543495
40
0.15
50
88.43140797117267
51
171.00000000000196
0
ARC
8
0
10
50.92312081530134
20
50.93047545041026
40
50.675581789406515
50
171.8256350668136
51
172.42436493318496
0
ARC
8
0
10
0.8388113584838846
20
57.59365335428676
40
0.15
50
173.24999999999918
51
-104.1814079711724
0
ARC
8
0
10
0.5967319922262847
20
56.469531916072924
40
1
50
58.873016759937585
51
78.15115622388136
0
ARC
8
0
10
0.8088390101831824
20
56.861762621116306
40
0.555
50
-6.749999999999938
51
56.68494882292267
0
ARC
8
0
10
0.8088390101831829
20
56.86176262111631
40
0.555
50
-70.18494882292288
51
-6.750000000000672
0
ARC
8
0
10
0.6941569656709481
20
57.292671360540204
40
1
50
-91.65115622388093
51
-72.37301675993716
0
ARC
8
0
10
0.6671267216067257
20
56.14309718140888
40
0.15
50
90.68140797117236
51
173.24999999999918
0
ARC
8
0
10
50.92309071151193
20
50.93022110477767
40
50.675581789406515
50
174.07563506681433
51
174.67436493318573
0
ARC
8
0
10
0.6157993053179476
20
55.62196117827317
40
0.15
50
175.50000000000023
51
-101.9314079711726
0
ARC
8
0
10
0.4180393740336933
20
54.48920240563088
40
1
50
61.1230167599375
51
80.40115622388127
0
ARC
8
0
10
0.6145839599516066
20
54.889457997461584
40
0.555
50
-4.49999999999944
51
58.93494882292285
0
ARC
8
0
10
0.6145839599516074
20
54.8894579974616
40
0.555
50
-67.93494882292282
51
-4.500000000000909
0
ARC
8
0
10
0.48307293342076496
20
55.31553212592541
40
1
50
-89.40115622388026
51
-70.12301675993638
0
ARC
8
0
10
0.5011955991692109
20
54.165783024422915
40
0.15
50
92.9314079711725
51
175.50000000000023
0
ARC
8
0
10
50.92307061649409
20
50.9299657733668
40
50.675581789406515
50
176.32563506681473
51
176.9243649331861
0
ARC
8
0
10
0.4703674579267797
20
53.643033693352415
40
0.15
50
177.749999999999
51
-99.6814079711725
0
ARC
8
0
10
0.31723189309599853
20
52.503384218205085
40
1
50
63.373016759938245
51
82.6511562238819
0
ARC
8
0
10
0.4979109894692608
20
52.91104753171163
40
0.555
50
-2.2499999999996683
51
61.1849488229223
0
ARC
8
0
10
0.4979109894692607
20
52.91104753171163
40
0.555
50
-65.68494882292205
51
-2.2499999999996674
0
ARC
8
0
10
0.34977376139063737
20
53.33163007379176
40
1
50
-87.15115622388075
51
-67.87301675993697
0
ARC
8
0
10
0.41302139311470404
20
52.18347887969713
40
0.15
50
95.1814079711725
51
177.749999999999
0
ARC
8
0
10
50.92306056123289
20
50.929709849879345
40
50.675581789406515
50
178.57563506681376
51
179.17436493318513
0
ARC
8
0
10
0.4027400616779314
20
51.659922262270676
40
0.15
50
180
51
-97.43140797117249
0
ARC
8
0
10
0.29446498724208187
20
50.51513934150555
40
1
50
65.62301675993731
51
84.90115622388116
0
ARC
8
0
10
0.45899999999999563
20
50.92958178940652
40
0.555
50
0
51
63.43494882292216
0
ARC
8
0
10
0.45899999999999574
20
50.92958178940652
40
0.555
50
-63.43494882292216
51
0
0
ARC
8
0
10
0.2944649872420815
20
51.34402423730749
40
1
50
-84.90115622388113
51
-65.62301675993729
0
ARC
8
0
10
0.4027400616779313
20
50.19924131654236
40
0.15
50
97.43140797117249
51
180
0
ARC
8
0
10
50.92306056123289
20
50.92945372893341
40
50.675581789406515
50
-179.1743649331855
51
-178.57563506681413
0
ARC
8
0
10
0.41302139311470376
20
49.67568469911593
40
0.15
50
-177.749999999999
51
-95.18140797117249
0
ARC
8
0
10
0.3497737613906377
20
48.5275335050213
40
1
50
67.87301675993699
51
87.15115622388076
0
ARC
8
0
10
0.4979109894692606
20
48.94811604710143
40
0.555
50
2.249999999999667
51
65.68494882292205
0
ARC
8
0
10
0.4979109894692607
20
48.94811604710142
40
0.555
50
-61.18494882292193
51
2.2500000000004
0
ARC
8
0
10
0.31723189309599836
20
49.355779360607976
40
1
50
-82.65115622388188
51
-63.37301675993823
0
ARC
8
0
10
0.4703674579267798
20
48.216129885460646
40
0.15
50
99.68140797117252
51
-177.749999999999
0
ARC
8
0
10
50.92307061649411
20
50.92919780544575
40
50.675581789406515
50
-176.92436493318664
51
-176.32563506681527
0
ARC
8
0
10
0.5011955991692109
20
47.693380554390124
40
0.15
50
-175.50000000000023
51
-92.93140797117256
0
ARC
8
0
10
0.4830729334207639
20
46.54363145288763
40
1
50
70.12301675993632
51
89.40115622388021
0
ARC
8
0
10
0.6145839599516071
20
46.96970558135144
40
0.555
50
4.500000000000174
51
67.93494882292279
0
ARC
8
0
10
0.614583959951606
20
46.969705581351455
40
0.555
50
-58.934948822922784
51
4.499999999998703
0
ARC
8
0
10
0.41803937403369235
20
47.36996117318216
40
1
50
-80.4011562238812
51
-61.12301675993744
0
ARC
8
0
10
0.6157993053179479
20
46.23720240053987
40
0.15
50
101.9314079711726
51
-175.50000000000023
0
ARC
8
0
10
50.92309071151195
20
50.92894247403519
40
50.675581789406515
50
-174.67436493318593
51
-174.07563506681456
0
ARC
8
0
10
0.6671267216067256
20
45.71606639740418
40
0.15
50
-173.24999999999918
51
-90.68140797117236
0
ARC
8
0
10
0.6941569656709486
20
44.566492218272856
40
1
50
72.3730167599372
51
91.65115622388097
0
ARC
8
0
10
0.8088390101831829
20
44.99740095769675
40
0.555
50
6.750000000000672
51
70.18494882292288
0
ARC
8
0
10
0.8088390101831823
20
44.997400957696755
40
0.555
50
-56.68494882292265
51
6.749999999999936
0
ARC
8
0
10
0.596731992226284
20
45.389631662740136
40
1
50
-78.15115622388133
51
-58.873016759937556
0
ARC
8
0
10
0.8388113584838853
20
44.2655102245263
40
0.15
50
104.18140797117275
51
-173.25000000000193
0
ARC
8
0
10
50.92312081530144
20
50.92868812840207
40
50.675581789406515
50
-172.4243649331858
51
-171.82563506681439
0
ARC
8
0
10
0.9105589066633759
20
43.746791103269544
40
0.15
50
-171.00000000000196
51
-88.43140797117265
0
ARC
8
0
10
0.9827003818631075
20
42.59916440657082
40
1
50
74.62301675993773
51
93.9011562238815
0
ARC
8
0
10
1.0803766129564083
20
43.03424332691149
40
0.555
50
8.999999999999886
51
72.43494882292157
0
ARC
8
0
10
1.0803766129564083
20
43.03424332691149
40
0.555
50
-54.434948822921626
51
8.999999999999886
0
ARC
8
0
10
0.8530342166083943
20
43.417844353849816
40
1
50
-75.90115622388097
51
-56.6230167599371
0
ARC
8
0
10
1.139059749002842
20
42.30409356384422
40
0.15
50
106.43140797117253
51
-170.99999999999923
0
ARC
8
0
10
50.92316088144481
20
50.92843516072876
40
50.675581789406515
50
-170.17436493318644
51
-169.57563506681507
0
ARC
8
0
10
1.2311167995541048
20
41.78859115175391
40
0.15
50
-168.75000000000085
51
-86.18140797117273
0
ARC
8
0
10
1.3482582689634943
20
40.64468149467245
40
1
50
76.87301675993758
51
96.15115622388133
0
ARC
8
0
10
1.4287780769692593
20
41.08325973576987
40
0.555
50
11.249999999999964
51
74.6849488229223
0
ARC
8
0
10
1.428778076969259
20
41.08325973576988
40
0.555
50
-52.184948822922436
51
11.24999999999924
0
ARC
8
0
10
1.1865508477271907
20
41.45763959962356
40
1
50
-73.65115622388142
51
-54.37301675993765
0
ARC
8
0
10
1.5160815156190635
20
40.35597678081812
40
0.15
50
108.68140797117236
51
-168.75000000000082
0
ARC
8
0
10
50.923210848162654
20
50.92818396107493
40
50.675581789406515
50
-167.92436493318576
51
-167.32563506681436
0
ARC
8
0
10
1.6283061232426037
20
39.84448594524927
40
0.15
50
-166.5000000000038
51
-83.93140797117321
0
ARC
8
0
10
1.7902669632064308
20
38.70605715356407
40
1
50
79.12301675993898
51
98.40115622388278
0
ARC
8
0
10
1.8535061924168739
20
39.14745845955926
40
0.555
50
13.499999999999934
51
76.93494882292235
0
ARC
8
0
10
1.8535061924168739
20
39.14745845955926
40
0.555
50
-49.93494882292216
51
13.499999999999934
0
ARC
8
0
10
1.5967676271112565
20
39.51203989371384
40
1
50
-71.40115622388126
51
-52.12301675993749
0
ARC
8
0
10
1.9692953180955373
20
38.424163730325034
40
0.15
50
110.93140797117282
51
-166.50000000000375
0
ARC
8
0
10
50.923270638410244
20
50.92793491677039
40
50.675581789406515
50
-165.6743649331858
51
-165.07563506681447
0
ARC
8
0
10
2.101514440580567
20
37.91747315307262
40
0.15
50
-164.24999999999903
51
-81.68140797117279
0
ARC
8
0
10
2.3080449192227155
20
36.78628060146548
40
1
50
81.37301675993749
51
100.65115622388123
0
ARC
8
0
10
2.353906059330111
20
37.229824363538
40
0.555
50
15.749999999999813
51
79.18494882292187
0
ARC
8
0
10
2.3539060593301127
20
37.22982436353799
40
0.555
50
-47.68494882292174
51
15.750000000000567
0
ARC
8
0
10
2.083052030219877
20
37.584045209847396
40
1
50
-69.1511562238816
51
-49.87301675993789
0
ARC
8
0
10
2.4980023335984014
20
36.51163312806834
40
0.15
50
113.18140797117275
51
-164.24999999999903
0
ARC
8
0
10
50.92334015999534
20
50.92768841182374
40
50.675581789406515
50
-163.42436493318638
51
-162.82563506681495
0
ARC
8
0
10
2.6500120986415117
20
36.01052408927667
40
0.15
50
-162.0000000000011
51
-79.4314079711728
0
ARC
8
0
10
2.9007937609335537
20
34.88831199467171
40
1
50
83.62301675993668
51
102.90115622388046
0
ARC
8
0
10
2.9292060973839336
20
35.333314300489135
40
0.555
50
18.000000000000302
51
81.43494882292222
0
ARC
8
0
10
2.9292060973839327
20
35.333314300489135
40
0.555
50
-45.43494882292224
51
18.000000000000274
0
ARC
8
0
10
2.6446542417500587
20
35.676628376082775
40
1
50
-66.90115622388123
51
-47.62301675993745
0
ARC
8
0
10
3.1013873342312297
20
34.621333957613594
40
0.15
50
115.4314079711733
51
-162.00000000000117
0
ARC
8
0
10
50.92341930572021
20
50.92744482632931
40
50.675581789406515
50
-161.1743649331854
51
-160.57563506681402
0
ARC
8
0
10
3.2729533537925874
20
34.12657913109952
40
0.15
50
-159.74999999999886
51
-77.18140797117206
0
ARC
8
0
10
3.567599512588335
20
33.01507786320706
40
1
50
85.87301675993854
51
105.15115622388231
0
ARC
8
0
10
3.5785192356182067
20
33.460852551468236
40
0.555
50
20.25000000000046
51
83.68494882292195
0
ARC
8
0
10
3.5785192356182085
20
33.460852551468236
40
0.555
50
-43.184948822922244
51
20.250000000000522
0
ARC
8
0
10
3.2807083117973765
20
33.792730490925464
40
1
50
-64.65115622388201
51
-45.37301675993841
0
ARC
8
0
10
3.7785199440572392
20
32.756180923270165
40
0.15
50
117.68140797117184
51
-159.74999999999886
0
ARC
8
0
10
50.9235079535488
20
50.92720453587546
40
50.675581789406515
50
-158.92436493318635
51
-158.325635066815
0
ARC
8
0
10
3.969377675770044
20
32.26854318511553
40
0.15
50
-157.49999999999957
51
-74.93140797117289
0
ARC
8
0
10
4.307434008048967
20
31.169466598327446
40
1
50
88.12301675993793
51
107.40115622388171
0
ARC
8
0
10
4.3008442802369435
20
31.615326316773462
40
0.555
50
22.499999999999513
51
85.93494882292208
0
ARC
8
0
10
4.300844280236944
20
31.61532631677346
40
0.555
50
-40.93494882292222
51
22.499999999999883
0
ARC
8
0
10
3.990233491087889
20
31.935256388366607
40
1
50
-62.4011562238811
51
-43.12301675993729
0
ARC
8
0
10
4.528356073671638
20
30.919049955827912
40
0.15
50
119.93140797117216
51
-157.50000000000085
0
ARC
8
0
10
50.92360596679138
20
50.92696791097596
40
50.675581789406515
50
-156.67436493318525
51
-156.07563506681385
0
ARC
8
0
10
4.738211228747261
20
30.439281208080256
40
0.15
50
-155.24999999999935
51
-72.68140797117196
0
ARC
8
0
10
5.1191564761477935
20
29.354323998830708
40
1
50
90.37301675993699
51
109.65115622388073
0
ARC
8
0
10
5.095067458376529
20
29.79958126409228
40
0.555
50
24.750000000000213
51
88.18494882292173
0
ARC
8
0
10
5.095067458376531
20
29.799581264092275
40
0.555
50
-38.68494882292187
51
24.750000000000632
0
ARC
8
0
10
4.772135743222629
20
30.107070158839964
40
1
50
-60.15115622388169
51
-40.87301675993806
0
ARC
8
0
10
5.349739530111798
20
29.11277377808073
40
0.15
50
122.18140797117243
51
-155.2499999999995
0
ARC
8
0
10
50.92371319432009
20
50.92673531648571
40
50.675581789406515
50
-154.42436493318635
51
-153.82563506681504
0
ARC
8
0
10
5.578268527111653
20
28.641613789374833
40
0.15
50
-153.0000000000004
51
-70.43140797117303
0
ARC
8
0
10
6.001515299673802
20
27.572448883041226
40
1
50
92.62301675993821
51
111.90115622388205
0
ARC
8
0
10
5.95996413546266
20
28.016417140688205
40
0.555
50
27.000000000000103
51
90.43494882292192
0
ARC
8
0
10
5.959964135462661
20
28.016417140688205
40
0.555
50
-36.434948822921946
51
27.00000000000015
0
ARC
8
0
10
5.625209431602097
20
28.310990733001944
40
1
50
-57.90115622388085
51
-38.62301675993691
0
ARC
8
0
10
6.2414037996228835
20
27.340137536973273
40
0.15
50
124.43140797117312
51
-153.0000000000004
0
ARC
8
0
10
50.92382947079631
20
50.92650711105195
40
50.675581789406515
50
-152.17436493318561
51
-151.5756350668142
0
ARC
8
0
10
6.488254263397784
20
26.878312801861256
40
0.15
50
-150.7500000000002
51
-68.18140797117267
0
ARC
8
0
10
6.953149945275769
20
25.82658877323453
40
1
50
94.87301675993781
51
114.15115622388159
0
ARC
8
0
10
6.894200703508301
20
26.268583456393092
40
0.555
50
29.249999999999833
51
92.68494882292194
0
ARC
8
0
10
6.894200703508303
20
26.26858345639309
40
0.555
50
-34.18494882292197
51
29.25000000000025
0
ARC
8
0
10
6.548139178430942
20
26.549787535144674
40
1
50
-55.651156223881145
51
-36.37301675993738
0
ARC
8
0
10
7.201974000530498
20
25.603874509105985
40
0.15
50
126.68140797117245
51
-150.7500000000015
0
ARC
8
0
10
50.923954616931276
20
50.926283646548605
40
50.675581789406515
50
-149.9243649331857
51
-149.32563506681433
0
ARC
8
0
10
7.466765305557321
20
25.15209712785576
40
0.15
50
-148.5000000000013
51
-65.9314079711729
0
ARC
8
0
10
7.972593061306006
20
24.11943565915759
40
1
50
97.12301675993798
51
116.40115622388184
0
ARC
8
0
10
7.896336637440281
20
24.558775244062712
40
0.555
50
31.499999999999574
51
94.93494882292173
0
ARC
8
0
10
7.896336637440283
20
24.55877524406271
40
0.555
50
-31.934948822921594
51
31.49999999999999
0
ARC
8
0
10
7.539501892934749
20
24.826176212944773
40
1
50
-53.401156223880875
51
-34.123016759936974
0
ARC
8
0
10
8.229969003208298
20
23.906661886221084
40
0.15
50
128.9314079711724
51
-148.5000000000013
0
ARC
8
0
10
50.92408843975867
20
50.92606526754197
40
50.675581789406515
50
-147.67436493318655
51
-147.07563506681518
0
ARC
8
0
10
8.512292860487179
20
23.465628466808997
40
0.15
50
-146.2499999999999
51
-63.68140797117198
0
ARC
8
0
10
9.058272740370313
20
22.453621847175302
40
1
50
99.37301675993731
51
118.65115622388097
0
ARC
8
0
10
8.964826716284772
20
22.88962890403104
40
0.555
50
33.749999999999936
51
97.18494882292191
0
ARC
8
0
10
8.964826716284774
20
22.88962890403104
40
0.555
50
-29.684948822921996
51
33.75000000000004
0
ARC
8
0
10
8.597768965663201
20
23.14281445013118
40
1
50
-51.15115622388111
51
-31.873016759937364
0
ARC
8
0
10
9.32380371387275
20
22.251116647166565
40
0.15
50
131.18140797117258
51
-146.2499999999999
0
ARC
8
0
10
50.92423073293264
20
50.92585231075785
40
50.675581789406515
50
-145.4243649331865
51
-144.82563506681512
0
ARC
8
0
10
9.623224800478988
20
21.821507231158648
40
0.15
50
-143.9999999999992
51
-61.431407971171545
0
ARC
8
0
10
10.20851494309523
20
20.831715901445218
40
1
50
101.62301675993798
51
120.90115622388184
0
ARC
8
0
10
10.098023405785884
20
21.26371813897231
40
0.555
50
35.99999999999972
51
99.43494882292173
0
ARC
8
0
10
10.098023405785886
20
21.263718138972305
40
0.555
50
-27.434948822921843
51
36.00000000000013
0
ARC
8
0
10
9.721308625494858
20
21.5022978685297
40
1
50
-48.901156223881564
51
-29.623016759937887
0
ARC
8
0
10
10.48179151868271
20
20.639791522704776
40
0.15
50
133.4314079711712
51
-143.9999999999992
0
ARC
8
0
10
50.92438127704724
20
50.9256451045603
40
50.675581789406515
50
-143.17436493318527
51
-142.57563506681387
0
ARC
8
0
10
10.797848149003269
20
20.222268536681774
40
0.15
50
-141.74999999999986
51
-59.18140797117243
0
ARC
8
0
10
11.421546079375357
20
19.256218683377508
40
1
50
103.8730167599378
51
123.15115622388154
0
ARC
8
0
10
11.294179398784177
20
19.683549985437843
40
0.555
50
38.24999999999963
51
101.68494882292266
0
ARC
8
0
10
11.294179398784175
20
19.683549985437843
40
0.555
50
-25.18494882292246
51
38.24999999999952
0
ARC
8
0
10
10.908388455710055
20
19.907156025802088
40
1
50
-46.65115622388103
51
-27.373016759937105
0
ARC
8
0
10
11.702146884375832
20
19.075171059386435
40
0.15
50
135.68140797117346
51
-141.75000000000026
0
ARC
8
0
10
50.924539839976056
20
50.92544396844397
40
50.675581789406515
50
-140.92436493318615
51
-140.32563506681478
0
ARC
8
0
10
12.034351721994948
20
18.670378293530156
40
0.15
50
-139.50000000000003
51
-56.93140797117266
0
ARC
8
0
10
12.695495743120782
20
17.729559495488157
40
1
50
106.12301675993751
51
125.40115622388126
0
ARC
8
0
10
12.551450309437511
20
18.151560948187548
40
0.555
50
40.50000000000043
51
103.93494882292282
0
ARC
8
0
10
12.55145030943751
20
18.151560948187548
40
0.555
50
-22.93494882292273
51
40.50000000000032
0
ARC
8
0
10
12.157178065251843
20
18.359848515051716
40
1
50
-44.401156223881365
51
-25.123016759937624
0
ARC
8
0
10
12.982988111431288
20
17.559667788560052
40
0.15
50
137.9314079711729
51
-139.50000000000003
0
ARC
8
0
10
50.924706177224564
20
50.925249212548735
40
50.675581789406515
50
-138.67436493318547
51
-138.07563506681407
0
ARC
8
0
10
13.330828920568083
20
17.168229403975452
40
0.15
50
-137.2500000000001
51
-54.68140797117181
0
ARC
8
0
10
14.02839959628776
20
16.254092335590403
40
1
50
108.37301675993737
51
127.65115622388113
0
ARC
8
0
10
13.867897517130508
20
16.670113243276056
40
0.555
50
42.74999999999999
51
106.18494882292211
0
ARC
8
0
10
13.86789751713051
20
16.670113243276056
40
0.555
50
-20.684948822922347
51
42.75000000000012
0
ARC
8
0
10
13.465751911056408
20
16.862761172309018
40
1
50
-42.15115622388109
51
-22.873016759937272
0
ARC
8
0
10
14.322340235514224
20
16.09561850642335
40
0.15
50
140.18140797117323
51
-137.2500000000001
0
ARC
8
0
10
50.92488003231457
20
50.92506113717198
40
50.675581789406515
50
-136.4243649331863
51
-135.82563506681493
0
ARC
8
0
10
14.685280670852977
20
15.71813807272746
40
0.15
50
-135
51
-52.431407971172796
0
ARC
8
0
10
15.418202397745477
20
14.832092267100832
40
1
50
110.62301675993764
51
129.90115622388146
0
ARC
8
0
10
15.241491155686875
20
15.241491155686893
40
0.555
50
44.99999999999974
51
108.43494882292161
0
ARC
8
0
10
15.241491155686878
20
15.241491155686889
40
0.555
50
-18.43494882292161
51
45.00000000000026
0
ARC
8
0
10
14.832092267100819
20
15.418202397745493
40
1
50
-39.90115622388161
51
-20.623016759937766
0
ARC
8
0
10
15.718138072727445
20
14.685280670852991
40
0.15
50
142.43140797117277
51
-135
0
ARC
8
0
10
50.92506113717191
20
50.92488003231463
40
50.675581789406515
50
-134.17436493318502
51
-133.57563506681365
0
ARC
8
0
10
16.095618506423357
20
14.322340235514224
40
0.15
50
-132.74999999999991
51
-50.18140797117218
0
ARC
8
0
10
16.862761172309032
20
13.46575191105641
40
1
50
112.8730167599377
51
132.15115622388132
0
ARC
8
0
10
16.670113243276052
20
13.867897517130505
40
0.555
50
47.24999999999949
51
110.68494882292114
0
ARC
8
0
10
16.670113243276063
20
13.867897517130498
40
0.555
50
-16.18494882292104
51
47.250000000000796
0
ARC
8
0
10
16.25409233559041
20
14.028399596287759
40
1
50
-37.65115622388105
51
-18.373016759937272
0
ARC
8
0
10
17.16822940397546
20
13.330828920568083
40
0.15
50
144.6814079711718
51
-132.74999999999991
0
ARC
8
0
10
50.92524921254922
20
50.924706177224145
40
50.675581789406515
50
-131.92436493318664
51
-131.3256350668153
0
ARC
8
0
10
17.55966778856003
20
12.98298811143131
40
0.15
50
-130.5
51
-47.93140797117288
0
ARC
8
0
10
18.359848515051695
20
12.157178065251864
40
1
50
115.12301675993764
51
134.40115622388134
0
ARC
8
0
10
18.151560948187523
20
12.551450309437527
40
0.555
50
49.500000000000206
51
112.93494882292227
0
ARC
8
0
10
18.151560948187523
20
12.551450309437527
40
0.555
50
-13.934948822922177
51
49.500000000000206
0
ARC
8
0
10
17.729559495488136
20
12.695495743120803
40
1
50
-35.40115622388126
51
-16.1230167599375
0
ARC
8
0
10
18.670378293530135
20
12.03435172199497
40
0.15
50
146.93140797117266
51
-130.5
0
ARC
8
0
10
50.92544396844453
20
50.924539839975594
40
50.675581789406515
50
-129.67436493318607
51
-129.07563506681467
0
ARC
8
0
10
19.075171059386424
20
11.70214688437584
40
0.15
50
-128.24999999999974
51
-45.68140797117348
0
ARC
8
0
10
19.907156025802077
20
10.908388455710062
40
1
50
117.3730167599371
51
136.65115622388103
0
ARC
8
0
10
19.68354998543783
20
11.294179398784179
40
0.555
50
51.74999999999998
51
115.184948822922
0
ARC
8
0
10
19.68354998543783
20
11.294179398784179
40
0.555
50
-11.684948822922047
51
51.74999999999998
0
ARC
8
0
10
19.256218683377497
20
11.42154607937536
40
1
50
-33.15115622388145
51
-13.873016759937594
0
ARC
8
0
10
20.222268536681764
20
10.797848149003274
40
0.15
50
149.18140797117246
51
-128.25000000000017
0
ARC
8
0
10
50.92564510456002
20
50.924381277047466
40
50.675581789406515
50
-127.4243649331857
51
-126.82563506681434
0
ARC
8
0
10
20.639791522704765
20
10.481791518682725
40
0.15
50
-126.00000000000078
51
-43.43140797117073
0
ARC
8
0
10
21.502297868529684
20
9.72130862549487
40
1
50
119.62301675993767
51
138.9011562238813
0
ARC
8
0
10
21.263718138972294
20
10.098023405785902
40
0.555
50
53.99999999999977
51
117.43494882292195
0
ARC
8
0
10
21.263718138972294
20
10.0980234057859
40
0.555
50
-9.434948822921898
51
53.99999999999987
0
ARC
8
0
10
20.8317159014452
20
10.208514943095235
40
1
50
-30.901156223881188
51
-11.623016759937444
0
ARC
8
0
10
21.821507231158638
20
9.623224800479004
40
0.15
50
151.43140797117212
51
-125.99999999999929
0
ARC
8
0
10
50.92585231075896
20
50.924230732931875
40
50.675581789406515
50
-125.17436493318645
51
-124.57563506681508
0
ARC
8
0
10
22.25111664716653
20
9.32380371387277
40
0.15
50
-123.75000000000011
51
-41.18140797117257
0
ARC
8
0
10
23.142814450131144
20
8.597768965663223
40
1
50
121.87301675993739
51
141.15115622388112
0
ARC
8
0
10
22.88962890403101
20
8.964826716284799
40
0.555
50
56.250000000000476
51
119.68494882292285
0
ARC
8
0
10
22.889628904031003
20
8.964826716284803
40
0.555
50
-7.184948822922802
51
56.249999999999666
0
ARC
8
0
10
22.453621847175267
20
9.058272740370334
40
1
50
-28.65115622388094
51
-9.373016759937304
0
ARC
8
0
10
23.465628466808962
20
8.5122928604872
40
0.15
50
153.681407971172
51
-123.75000000000011
0
ARC
8
0
10
50.92606526754257
20
50.924088439758286
40
50.675581789406515
50
-122.92436493318567
51
-122.32563506681426
0
ARC
8
0
10
23.906661886221087
20
8.22996900320829
40
0.15
50
-121.50000000000023
51
-38.93140797117189
0
ARC
8
0
10
24.826176212944777
20
7.539501892934742
40
1
50
124.12301675993699
51
143.40115622388086
0
ARC
8
0
10
24.558775244062716
20
7.896336637440276
40
0.555
50
58.49999999999997
51
121.93494882292195
0
ARC
8
0
10
24.558775244062716
20
7.8963366374402755
40
0.555
50
-4.934948822921888
51
58.50000000000003
0
ARC
8
0
10
24.119435659157592
20
7.972593061306
40
1
50
-26.401156223881838
51
-7.123016759938017
0
ARC
8
0
10
25.152097127855765
20
7.466765305557314
40
0.15
50
155.9314079711726
51
-121.4999999999987
0
ARC
8
0
10
50.92628364654866
20
50.92395461693124
40
50.675581789406515
50
-120.67436493318574
51
-120.07563506681443
0
ARC
8
0
10
25.60387450910597
20
7.201974000530505
40
0.15
50
-119.24999999999848
51
-36.68140797117246
0
ARC
8
0
10
26.54978753514466
20
6.548139178430949
40
1
50
126.37301675993739
51
145.65115622388115
0
ARC
8
0
10
26.268583456393074
20
6.89420070350831
40
0.555
50
60.74999999999976
51
124.18494882292198
0
ARC
8
0
10
26.268583456393078
20
6.894200703508308
40
0.555
50
-2.6849488229219247
51
60.75000000000016
0
ARC
8
0
10
25.826588773234516
20
6.953149945275776
40
1
50
-24.151156223881575
51
-4.8730167599378165
0
ARC
8
0
10
26.87831280186124
20
6.488254263397791
40
0.15
50
158.18140797117266
51
-119.24999999999984
0
ARC
8
0
10
50.92650711105236
20
50.923829470796086
40
50.675581789406515
50
-118.42436493318637
51
-117.82563506681497
0
ARC
8
0
10
27.34013753697324
20
6.241403799622898
40
0.15
50
-116.99999999999962
51
-34.431407971173115
0
ARC
8
0
10
28.310990733001912
20
5.625209431602111
40
1
50
128.62301675993692
51
147.90115622388083
0
ARC
8
0
10
28.016417140688176
20
5.959964135462679
40
0.555
50
63.000000000000675
51
126.43494882292246
0
ARC
8
0
10
28.016417140688173
20
5.95996413546268
40
0.555
50
-0.4349488229224575
51
63.0000000000003
0
ARC
8
0
10
27.572448883041194
20
6.001515299673817
40
1
50
-21.90115622388208
51
-2.623016759938248
0
ARC
8
0
10
28.6416137893748
20
5.578268527111668
40
0.15
50
160.43140797117306
51
-116.99999999999962
0
ARC
8
0
10
50.92673531648627
20
50.92371319431982
40
50.675581789406515
50
-116.17436493318574
51
-115.57563506681436
0
ARC
8
0
10
29.112773778080733
20
5.3497395301117905
40
0.15
50
-114.75000000000065
51
-32.18140797117241
0
ARC
8
0
10
30.107070158839964
20
4.772135743222616
40
1
50
130.87301675993754
51
150.15115622388132
0
ARC
8
0
10
29.799581264092282
20
5.095067458376524
40
0.555
50
65.24999999999937
51
128.68494882292188
0
ARC
8
0
10
29.799581264092286
20
5.095067458376522
40
0.555
50
1.8150511770782878
51
65.24999999999979
0
ARC
8
0
10
29.354323998830715
20
5.1191564761477855
40
1
50
-19.651156223880708
51
-0.3730167599369246
0
ARC
8
0
10
30.439281208080263
20
4.738211228747253
40
0.15
50
162.68140797117198
51
-114.7500000000008
0
ARC
8
0
10
50.92696791097582
20
50.923605966791435
40
50.675581789406515
50
-113.92436493318598
51
-113.32563506681458
0
ARC
8
0
10
30.919049955827898
20
4.528356073671645
40
0.15
50
-112.49999999999916
51
-29.931407971172156
0
ARC
8
0
10
31.935256388366593
20
3.9902334910878956
40
1
50
133.1230167599373
51
152.4011562238811
0
ARC
8
0
10
31.615326316773444
20
4.300844280236953
40
0.555
50
67.4999999999997
51
130.93494882292234
0
ARC
8
0
10
31.615326316773448
20
4.300844280236952
40
0.555
50
4.065051177077743
51
67.50000000000009
0
ARC
8
0
10
31.169466598327432
20
4.307434008048974
40
1
50
-17.401156223881706
51
1.8769832400620938
0
ARC
8
0
10
32.26854318511552
20
3.969377675770051
40
0.15
50
164.93140797117292
51
-112.50000000000043
0
ARC
8
0
10
50.927204535876434
20
50.92350795354842
40
50.675581789406515
50
-111.6743649331862
51
-111.07563506681488
0
ARC
8
0
10
32.75618092327013
20
3.778519944057247
40
0.15
50
-110.25000000000115
51
-27.681407971172135
0
ARC
8
0
10
33.79273049092543
20
3.280708311797384
40
1
50
135.37301675993842
51
154.65115622388205
0
ARC
8
0
10
33.4608525514682
20
3.578519235618219
40
0.555
50
69.7500000000003
51
133.1849488229225
0
ARC
8
0
10
33.4608525514682
20
3.5785192356182187
40
0.555
50
6.315051177077548
51
69.75000000000031
0
ARC
8
0
10
33.015077863207026
20
3.5675995125883424
40
1
50
-15.151156223882307
51
4.126983240061436
0
ARC
8
0
10
34.12657913109948
20
3.272953353792595
40
0.15
50
167.18140797117206
51
-110.2500000000011
0
ARC
8
0
10
50.92744482632871
20
50.923419305720415
40
50.675581789406515
50
-109.42436493318532
51
-108.82563506681392
0
ARC
8
0
10
34.62133395761361
20
3.10138733423123
40
0.15
50
-107.99999999999883
51
-25.431407971173297
0
ARC
8
0
10
35.67662837608279
20
2.6446542417500587
40
1
50
137.62301675993746
51
156.9011562238812
0
ARC
8
0
10
35.33331430048915
20
2.929206097383931
40
0.555
50
72.00000000000048
51
135.4349488229221
0
ARC
8
0
10
35.33331430048915
20
2.929206097383931
40
0.555
50
8.565051177078047
51
72.00000000000048
0
ARC
8
0
10
34.888311994671724
20
2.9007937609335532
40
1
50
-12.90115622388046
51
6.376983240063365
0
ARC
8
0
10
36.010524089276686
20
2.6500120986415117
40
0.15
50
169.43140797117297
51
-107.99999999999889
0
ARC
8
0
10
50.92768841182421
20
50.923340159995206
40
50.675581789406515
50
-107.17436493318561
51
-106.57563506681424
0
ARC
8
0
10
36.511633128068326
20
2.498002333598408
40
0.15
50
-105.75000000000097
51
-23.18140797117274
0
ARC
8
0
10
37.58404520984738
20
2.083052030219883
40
1
50
139.87301675993785
51
159.15115622388154
0
ARC
8
0
10
37.22982436353798
20
2.3539060593301193
40
0.555
50
74.24999999999945
51
137.68494882292174
0
ARC
8
0
10
37.229824363537986
20
2.353906059330118
40
0.555
50
10.815051177078145
51
74.25000000000018
0
ARC
8
0
10
36.786280601465464
20
2.308044919222722
40
1
50
-10.651156223881179
51
8.626983240062543
0
ARC
8
0
10
37.917473153072606
20
2.1015144405805737
40
0.15
50
171.68140797117263
51
-105.75000000000097
0
ARC
8
0
10
50.927934916770965
20
50.923270638410095
40
50.675581789406515
50
-104.92436493318624
51
-104.32563506681484
0
ARC
8
0
10
38.42416373032506
20
1.9692953180955302
40
0.15
50
-103.49999999999625
51
-20.93140797117282
0
ARC
8
0
10
39.51203989371387
20
1.5967676271112494
40
1
50
142.1230167599375
51
161.40115622388126
0
ARC
8
0
10
39.14745845955929
20
1.8535061924168668
40
0.555
50
76.50000000000007
51
139.93494882292217
0
ARC
8
0
10
39.14745845955929
20
1.8535061924168668
40
0.555
50
13.065051177077653
51
76.50000000000007
0
ARC
8
0
10
38.706057153564096
20
1.7902669632064239
40
1
50
-8.40115622388276
51
10.87698324006103
0
ARC
8
0
10
39.844485945249296
20
1.628306123242597
40
0.15
50
173.93140797117323
51
-103.49999999999623
0
ARC
8
0
10
50.9281839610746
20
50.923210848162725
40
50.675581789406515
50
-102.67436493318526
51
-102.07563506681392
0
ARC
8
0
10
40.35597678081808
20
1.516081515619078
40
0.15
50
-101.24999999999918
51
-18.681407971172437
0
ARC
8
0
10
41.45763959962353
20
1.1865508477272213
40
1
50
144.37301675993888
51
163.65115622388242
0
ARC
8
0
10
41.083259735769836
20
1.4287780769692744
40
0.555
50
78.75000000000003
51
142.18494882292254
0
ARC
8
0
10
41.083259735769836
20
1.4287780769692735
40
0.555
50
15.315051177077697
51
78.75000000000004
0
ARC
8
0
10
40.64468149467241
20
1.3482582689635083
40
1
50
-6.151156223881275
51
13.126983240062437
0
ARC
8
0
10
41.78859115175388
20
1.2311167995541195
40
0.15
50
176.18140797117263
51
-101.24999999999916
0
ARC
8
0
10
50.92843516073009
20
50.92316088144457
40
50.675581789406515
50
-100.42436493318652
51
-99.82563506681512
0
ARC
8
0
10
42.304093563844205
20
1.1390597490028418
40
0.15
50
-99.00000000000077
51
-16.431407971172433
0
ARC
8
0
10
43.4178443538498
20
0.8530342166083941
40
1
50
146.62301675993712
51
165.90115622388097
0
ARC
8
0
10
43.03424332691148
20
1.0803766129564147
40
0.555
50
81.00000000000013
51
144.43494882292217
0
ARC
8
0
10
43.03424332691147
20
1.0803766129564156
40
0.555
50
17.565051177077486
51
80.99999999999939
0
ARC
8
0
10
42.59916440657081
20
0.9827003818631068
40
1
50
-3.901156223881439
51
15.376983240062314
0
ARC
8
0
10
43.74679110326953
20
0.910558906663376
40
0.15
50
178.43140797117263
51
-98.99999999999807
0
ARC
8
0
10
50.92868812840244
20
50.92312081530139
40
50.675581789406515
50
-98.17436493318606
51
-97.57563506681466
0
ARC
8
0
10
44.26551022452629
20
0.8388113584838847
40
0.15
50
-96.74999999999811
51
-14.181407971172643
0
ARC
8
0
10
45.38963166274012
20
0.596731992226285
40
1
50
148.87301675993763
51
168.1511562238814
0
ARC
8
0
10
44.99740095769674
20
0.8088390101831824
40
0.555
50
83.25000000000007
51
146.68494882292265
0
ARC
8
0
10
44.99740095769673
20
0.8088390101831829
40
0.555
50
19.815051177077112
51
83.24999999999933
0
ARC
8
0
10
44.56649221827284
20
0.6941569656709486
40
1
50
-1.6511562238809572
51
17.626983240062803
0
ARC
8
0
10
45.71606639740416
20
0.6671267216067257
40
0.15
50
-179.31859202882765
51
-96.75000000000084
0
ARC
8
0
10
50.928942474035836
20
50.92309071151188
40
50.675581789406515
50
-95.92436493318623
51
-95.32563506681488
0
ARC
8
0
10
46.23720240053983
20
0.6157993053179478
40
0.15
50
-94.4999999999998
51
-11.93140797117259
0
ARC
8
0
10
47.36996117318212
20
0.4180393740336933
40
1
50
151.12301675993749
51
170.40115622388126
0
ARC
8
0
10
46.96970558135141
20
0.6145839599516065
40
0.555
50
85.50000000000055
51
148.93494882292282
0
ARC
8
0
10
46.9697055813514
20
0.6145839599516074
40
0.555
50
22.065051177077184
51
85.49999999999909
0
ARC
8
0
10
46.54363145288759
20
0.4830729334207642
40
1
50
0.5988437761198006
51
19.87698324006367
0
ARC
8
0
10
47.69338055439008
20
0.5011955991692112
40
0.15
50
-177.06859202882745
51
-94.4999999999998
0
ARC
8
0
10
50.929197805446115
20
50.923070616494094
40
50.675581789406515
50
-93.6743649331852
51
-93.07563506681383
0
ARC
8
0
10
48.2161298854606
20
0.47036745792677936
40
0.15
50
-92.250000000001
51
-9.681407971172515
0
ARC
8
0
10
49.35577936060793
20
0.31723189309599864
40
1
50
153.37301675993825
51
172.6511562238819
0
ARC
8
0
10
48.94811604710139
20
0.49791098946926104
40
0.555
50
87.7499999999996
51
151.1849488229223
0
ARC
8
0
10
48.94811604710139
20
0.49791098946926093
40
0.555
50
24.315051177077923
51
87.7499999999996
0
ARC
8
0
10
48.52753350502126
20
0.3497737613906378
40
1
50
2.8488437761192453
51
22.126983240063005
0
ARC
8
0
10
49.67568469911589
20
0.4130213931147041
40
0.15
50
-174.81859202882754
51
-92.250000000001
0
ARC
8
0
10
50.92945372893373
20
50.92306056123288
40
50.675581789406515
50
-91.42436493318631
51
-90.82563506681493
0
ARC
8
0
10
50.19924131654235
20
0.40274006167793086
40
0.15
50
-90
51
-7.431407971172483
0
ARC
8
0
10
51.34402423730747
20
0.29446498724208203
40
1
50
155.62301675993731
51
174.90115622388117
0
ARC
8
0
10
50.929581789406505
20
0.45899999999999574
40
0.555
50
90
51
153.43494882292217
0
ARC
8
0
10
50.929581789406505
20
0.45899999999999574
40
0.555
50
26.565051177077827
51
90
0
ARC
8
0
10
50.51513934150554
20
0.2944649872420814
40
1
50
5.098843776118877
51
24.37698324006271
0
ARC
8
0
10
51.65992226227066
20
0.4027400616779314
40
0.15
50
-172.5685920288275
51
-90
0
ARC
8
0
10
50.92970984987962
20
50.92306056123289
40
50.675581789406515
50
-89.17436493318549
51
-88.5756350668141
0
ARC
8
0
10
52.18347887969711
20
0.4130213931147043
40
0.15
50
-87.74999999999902
51
-5.181407971172459
0
ARC
8
0
10
53.33163007379174
20
0.34977376139063826
40
1
50
157.87301675993703
51
177.15115622388078
0
ARC
8
0
10
52.91104753171162
20
0.49791098946926066
40
0.555
50
92.24999999999967
51
155.68494882292205
0
ARC
8
0
10
52.91104753171162
20
0.4979109894692607
40
0.555
50
28.815051177077695
51
92.24999999999967
0
ARC
8
0
10
52.50338421820507
20
0.3172318930959986
40
1
50
7.3488437761180805
51
26.626983240061747
0
ARC
8
0
10
53.6430336933524
20
0.4703674579267794
40
0.15
50
-170.3185920288275
51
-87.74999999999902
0
ARC
8
0
10
50.92996577336701
20
50.9230706164941
40
50.675581789406515
50
-86.92436493318634
51
-86.32563506681498
0
ARC
8
0
10
54.16578302442288
20
0.5011955991692112
40
0.15
50
-85.5000000000002
51
-2.931407971172519
0
ARC
8
0
10
55.31553212592537
20
0.48307293342078467
40
1
50
160.12301675993757
51
179.40115622388137
0
ARC
8
0
10
54.88945799746155
20
0.6145839599515995
40
0.555
50
94.49999999999945
51
157.93494882292177
0
ARC
8
0
10
54.889457997461555
20
0.6145839599515998
40
0.555
50
31.065051177078143
51
94.50000000000018
0
ARC
8
0
10
54.48920240563084
20
0.4180393740336924
40
1
50
9.598843776118791
51
28.87698324006255
0
ARC
8
0
10
55.62196117827313
20
0.6157993053179477
40
0.15
50
-168.06859202882748
51
-85.5000000000002
0
ARC
8
0
10
50.93022110477798
20
50.92309071151196
40
50.675581789406515
50
-84.6743649331861
51
-84.0756350668147
0
ARC
8
0
10
56.14309718140885
20
0.6671267216067256
40
0.15
50
-83.24999999999916
51
-0.6814079711723957
0
ARC
8
0
10
57.29267136054017
20
0.6941569656709486
40
1
50
162.3730167599372
51
-178.34884377611903
0
ARC
8
0
10
56.86176262111628
20
0.808839010183183
40
0.555
50
96.7500000000007
51
160.18494882292288
0
ARC
8
0
10
56.86176262111627
20
0.8088390101831823
40
0.555
50
33.31505117707736
51
96.74999999999996
0
ARC
8
0
10
56.46953191607289
20
0.5967319922262848
40
1
50
11.848843776118628
51
31.126983240062415
0
ARC
8
0
10
57.59365335428672
20
0.8388113584838852
40
0.15
50
-165.8185920288273
51
-83.25000000000192
0
ARC
8
0
10
50.930475450410945
20
50.92312081530144
40
50.675581789406515
50
-82.42436493318579
51
-81.82563506681439
0
ARC
8
0
10
58.11237247554348
20
0.9105589066633759
40
0.15
50
-81.00000000000196
51
1.5685920288273598
0
ARC
8
0
10
59.2599991722422
20
0.9827003818631075
40
1
50
164.62301675993774
51
-176.09884377611854
0
ARC
8
0
10
58.82492025190153
20
1.080376612956408
40
0.555
50
98.99999999999989
51
162.43494882292154
0
ARC
8
0
10
58.82492025190153
20
1.0803766129564083
40
0.555
50
35.565051177078374
51
98.9999999999999
0
ARC
8
0
10
58.44131922496321
20
0.8530342166083947
40
1
50
14.09884377611902
51
33.37698324006288
0
ARC
8
0
10
59.555070014968805
20
1.1390597490028418
40
0.15
50
-163.56859202882754
51
-80.99999999999923
0
ARC
8
0
10
50.930728418083746
20
50.92316088144472
40
50.675581789406515
50
-80.17436493318583
51
-79.57563506681446
0
ARC
8
0
10
60.070572427059126
20
1.2311167995541126
40
0.15
50
-78.75000000000085
51
3.8185920288273483
0
ARC
8
0
10
61.21448208414059
20
1.3482582689635012
40
1
50
166.87301675993757
51
-173.84884377611877
0
ARC
8
0
10
60.77590384304317
20
1.428778076969265
40
0.555
50
101.24999999999923
51
164.68494882292217
0
ARC
8
0
10
60.77590384304317
20
1.4287780769692662
40
0.555
50
37.815051177077564
51
101.24999999999925
0
ARC
8
0
10
60.40152397918947
20
1.1865508477272142
40
1
50
16.34884377611755
51
35.626983240061115
0
ARC
8
0
10
61.50318679799492
20
1.5160815156190706
40
0.15
50
-161.3185920288276
51
-78.75000000000082
0
ARC
8
0
10
50.930979617738274
20
50.9232108481627
40
50.675581789406515
50
-77.92436493318594
51
-77.3256350668146
0
ARC
8
0
10
62.014677633563714
20
1.628306123242597
40
0.15
50
-76.5000000000038
51
6.068592028826779
0
ARC
8
0
10
63.153106425248914
20
1.7902669632064234
40
1
50
169.12301675993893
51
-171.59884377611726
0
ARC
8
0
10
62.711705119253715
20
1.8535061924168592
40
0.555
50
103.49999999999923
51
166.93494882292143
0
ARC
8
0
10
62.71170511925372
20
1.853506192416861
40
0.555
50
40.065051177078296
51
103.49999999999997
0
ARC
8
0
10
62.34712368509914
20
1.5967676271112499
40
1
50
18.598843776118713
51
37.87698324006249
0
ARC
8
0
10
63.43499984848795
20
1.9692953180955297
40
0.15
50
-159.06859202882725
51
-76.50000000000375
0
ARC
8
0
10
50.93122866204346
20
50.92327063841046
40
50.675581789406515
50
-75.67436493318684
51
-75.07563506681537
0
ARC
8
0
10
63.94169042574045
20
2.101514440580572
40
0.15
50
-74.24999999999625
51
8.318592028827878
0
ARC
8
0
10
65.07288297734759
20
2.3080449192227017
40
1
50
171.37301675993623
51
-169.34884377611996
0
ARC
8
0
10
64.62933921527508
20
2.3539060593301273
40
0.555
50
105.7500000000013
51
169.18494882292293
0
ARC
8
0
10
64.62933921527507
20
2.353906059330125
40
0.555
50
42.31505117707733
51
105.74999999999982
0
ARC
8
0
10
64.27511836896568
20
2.0830520302198674
40
1
50
20.848843776119306
51
40.126983240063105
0
ARC
8
0
10
65.34753045074474
20
2.4980023335984103
40
0.15
50
-156.8185920288277
51
-74.25000000000445
0
ARC
8
0
10
50.931475166988086
20
50.92334015999498
40
50.675581789406515
50
-73.42436493318489
51
-72.82563506681355
0
ARC
8
0
10
65.84863948953632
20
2.650012098641514
40
0.15
50
-72.00000000000138
51
10.568592028825698
0
ARC
8
0
10
66.97085158414129
20
2.900793760933574
40
1
50
173.6230167599378
51
-167.09884377611826
0
ARC
8
0
10
66.52584927832386
20
2.929206097383931
40
0.555
50
107.99999999999953
51
171.43494882292197
0
ARC
8
0
10
66.52584927832386
20
2.929206097383931
40
0.555
50
44.56505117707789
51
107.99999999999953
0
ARC
8
0
10
66.18253520273021
20
2.6446542417500734
40
1
50
23.098843776117864
51
42.376983240061385
0
ARC
8
0
10
67.2378296211994
20
3.10138733423123
40
0.15
50
-154.56859202882669
51
-72.00000000000117
0
ARC
8
0
10
50.93171875248447
20
50.92341930572048
40
50.675581789406515
50
-71.17436493318631
51
-70.57563506681495
0
ARC
8
0
10
67.73258444771348
20
3.272953353792581
40
0.15
50
-69.74999999999886
51
12.818592028827934
0
ARC
8
0
10
68.84408571560593
20
3.5675995125883277
40
1
50
175.8730167599385
51
-164.8488437761176
0
ARC
8
0
10
68.39831102734476
20
3.5785192356181943
40
0.555
50
110.2499999999989
51
173.6849488229214
0
ARC
8
0
10
68.39831102734476
20
3.578519235618198
40
0.555
50
46.81505117707801
51
110.24999999999903
0
ARC
8
0
10
68.06643308788755
20
3.2807083117973557
40
1
50
25.348843776118887
51
44.626983240062735
0
ARC
8
0
10
69.10298265554283
20
3.7785199440572343
40
0.15
50
-152.31859202882615
51
-69.74999999999915
0
ARC
8
0
10
50.93195904293724
20
50.92350795354868
40
50.675581789406515
50
-68.924364933186
51
-68.32563506681456
0
ARC
8
0
10
69.59062039369755
20
3.9693776757700707
40
0.15
50
-67.50000000000787
51
15.068592028825858
0
ARC
8
0
10
70.68969698048562
20
4.307434008049008
40
1
50
178.12301675993908
51
-162.59884377611706
0
ARC
8
0
10
70.2438372620396
20
4.300844280236968
40
0.555
50
112.50000000000033
51
175.93494882292245
0
ARC
8
0
10
70.2438372620396
20
4.300844280236968
40
0.555
50
49.06505117707733
51
112.50000000000033
0
ARC
8
0
10
69.92390719044646
20
3.9902334910879165
40
1
50
27.598843776118578
51
46.876983240062316
0
ARC
8
0
10
70.94011362298515
20
4.528356073671662
40
0.15
50
-150.06859202882697
51
-67.50000000000234
0
ARC
8
0
10
50.932195667838194
20
50.92360596679187
40
50.675581789406515
50
-66.67436493318661
51
-66.07563506681527
0
ARC
8
0
10
71.41988237073276
20
4.738211228747252
40
0.15
50
-65.25000000000513
51
17.31859202882609
0
ARC
8
0
10
72.5048395799823
20
5.11915647614781
40
1
50
-179.62698324006124
51
-160.3488437761174
0
ARC
8
0
10
72.05958231472073
20
5.095067458376524
40
0.555
50
114.75000000000028
51
178.18494882292265
0
ARC
8
0
10
72.05958231472073
20
5.095067458376521
40
0.555
50
51.315051177077564
51
114.7500000000002
0
ARC
8
0
10
71.75209341997306
20
4.772135743222602
40
1
50
29.848843776119377
51
49.12698324006333
0
ARC
8
0
10
72.74638980073229
20
5.349739530111783
40
0.15
50
-147.8185920288286
51
-65.2499999999992
0
ARC
8
0
10
50.932428262325445
20
50.92371319431918
40
50.675581789406515
50
-64.42436493318404
51
-63.825635066812666
0
ARC
8
0
10
73.2175497894382
20
5.578268527111673
40
0.15
50
-63.000000000002366
51
19.568592028824142
0
ARC
8
0
10
74.28671469577182
20
6.001515299673796
40
1
50
-177.37698324006294
51
-158.09884377611922
0
ARC
8
0
10
73.84274643812483
20
5.9599641354626725
40
0.555
50
116.99999999999939
51
-179.5650511770783
0
ARC
8
0
10
73.84274643812483
20
5.959964135462673
40
0.555
50
53.56505117707816
51
116.99999999999942
0
ARC
8
0
10
73.5481728458111
20
5.625209431602106
40
1
50
32.0988437761193
51
51.37698324006329
0
ARC
8
0
10
74.51902604183977
20
6.2414037996228995
40
0.15
50
-145.56859202882555
51
-63.00000000000191
0
ARC
8
0
10
50.932656467762435
20
50.92382947079704
40
50.675581789406515
50
-62.17436493318732
51
-61.57563506681591
0
ARC
8
0
10
74.98085077695178
20
6.488254263397778
40
0.15
50
-60.74999999999782
51
21.81859202883105
0
ARC
8
0
10
76.03257480557849
20
6.953149945275778
40
1
50
-175.1269832400616
51
-155.84884377611775
0
ARC
8
0
10
75.59058012241994
20
6.894200703508301
40
0.555
50
119.25000000000017
51
-177.31505117707812
0
ARC
8
0
10
75.59058012241994
20
6.894200703508304
40
0.555
50
55.815051177077684
51
119.25000000000031
0
ARC
8
0
10
75.30937604366835
20
6.548139178430947
40
1
50
34.348843776118606
51
53.62698324006228
0
ARC
8
0
10
76.25528906970705
20
7.201974000530493
40
0.15
50
-143.3185920288308
51
-60.74999999999816
0
ARC
8
0
10
50.93287993226372
20
50.923954616930864
40
50.675581789406515
50
-59.92436493318476
51
-59.325635066813405
0
ARC
8
0
10
76.70706645095727
20
7.466765305557324
40
0.15
50
-58.49999999999907
51
24.068592028830068
0
ARC
8
0
10
77.73972791965545
20
7.972593061305976
40
1
50
-172.87698324006413
51
-153.5988437761205
0
ARC
8
0
10
77.30038833475032
20
7.896336637440292
40
0.555
50
121.4999999999988
51
-175.0650511770778
0
ARC
8
0
10
77.30038833475032
20
7.89633663744029
40
0.555
50
58.06505117707841
51
121.49999999999868
0
ARC
8
0
10
77.03298736586827
20
7.539501892934756
40
1
50
36.598843776119374
51
55.87698324006337
0
ARC
8
0
10
77.95250169259195
20
8.229969003208302
40
0.15
50
-141.0685920288295
51
-58.49999999999943
0
ARC
8
0
10
50.933098311270825
20
50.92408843975853
40
50.675581789406515
50
-57.67436493318623
51
-57.07563506681488
0
ARC
8
0
10
78.39353511200402
20
8.512292860487175
40
0.15
50
-56.25000000000177
51
26.31859202882621
0
ARC
8
0
10
79.4055417316377
20
9.058272740370334
40
1
50
-170.62698324006104
51
-151.34884377611715
0
ARC
8
0
10
78.96953467478197
20
8.964826716284763
40
0.555
50
123.74999999999953
51
-172.8150511770783
0
ARC
8
0
10
78.96953467478197
20
8.964826716284767
40
0.555
50
60.315051177077684
51
123.74999999999973
0
ARC
8
0
10
78.71634912868184
20
8.597768965663185
40
1
50
38.848843776119416
51
58.12698324006342
0
ARC
8
0
10
79.60804693164644
20
9.323803713872747
40
0.15
50
-138.81859202882322
51
-56.250000000002146
0
ARC
8
0
10
50.93331126805565
20
50.924230732932976
40
50.675581789406515
50
-55.424364933187164
51
-54.82563506681577
0
ARC
8
0
10
80.03765634765438
20
9.623224800478987
40
0.15
50
-53.99999999999882
51
28.56859202882971
0
ARC
8
0
10
81.0274476773678
20
10.20851494309522
40
1
50
-168.37698324006237
51
-149.09884377611863
0
ARC
8
0
10
80.59544543984072
20
10.098023405785886
40
0.555
50
126.00000000000013
51
-170.56505117707792
0
ARC
8
0
10
80.59544543984072
20
10.09802340578589
40
0.555
50
62.56505117707733
51
126.00000000000036
0
ARC
8
0
10
80.35686571028332
20
9.721308625494865
40
1
50
41.09884377611794
51
60.37698324006121
0
ARC
8
0
10
81.21937205610824
20
10.481791518682712
40
0.15
50
-136.56859202882785
51
-53.999999999999616
0
ARC
8
0
10
50.93351847425315
20
50.924381277047566
40
50.675581789406515
50
-53.17436493318589
51
-52.5756350668145
0
ARC
8
0
10
81.63689504213124
20
10.797848149003267
40
0.15
50
-51.749999999997705
51
30.818592028826178
0
ARC
8
0
10
82.6029448954355
20
11.42154607937538
40
1
50
-166.12698324006084
51
-146.84884377611672
0
ARC
8
0
10
82.17561359337518
20
11.294179398784166
40
0.555
50
128.24999999999912
51
-168.3150511770785
0
ARC
8
0
10
82.17561359337518
20
11.29417939878417
40
0.555
50
64.8150511770781
51
128.24999999999935
0
ARC
8
0
10
81.95200755301092
20
10.908388455710059
40
1
50
43.34884377611855
51
62.626983240062266
0
ARC
8
0
10
82.78399251942659
20
11.702146884375823
40
0.15
50
-134.3185920288328
51
-51.749999999996035
0
ARC
8
0
10
50.93371961036857
20
50.92453983997566
40
50.675581789406515
50
-50.92436493318543
51
-50.32563506681405
0
ARC
8
0
10
83.18878528528289
20
12.034351721994964
40
0.15
50
-49.50000000000251
51
33.068592028827524
0
ARC
8
0
10
84.12960408332489
20
12.695495743120778
40
1
50
-163.87698324006348
51
-144.59884377611982
0
ARC
8
0
10
83.7076026306255
20
12.551450309437527
40
0.555
50
130.50000000000085
51
-166.065051177077
0
ARC
8
0
10
83.7076026306255
20
12.551450309437524
40
0.555
50
67.0650511770776
51
130.5000000000006
0
ARC
8
0
10
83.49931506376132
20
12.157178065251864
40
1
50
45.59884377611806
51
64.87698324006146
0
ARC
8
0
10
84.29949579025299
20
12.982988111431302
40
0.15
50
-132.06859202882814
51
-49.500000000002075
0
ARC
8
0
10
50.933914366264844
20
50.924706177225055
40
50.675581789406515
50
-48.67436493318628
51
-48.07563506681494
0
ARC
8
0
10
84.69093417483757
20
13.330828920568075
40
0.15
50
-47.25000000000294
51
35.31859202882363
0
ARC
8
0
10
85.6050712432226
20
14.028399596287779
40
1
50
-161.62698324006064
51
-142.3488437761164
0
ARC
8
0
10
85.18905033553696
20
13.867897517130498
40
0.555
50
132.75000000000077
51
-163.81505117707763
0
ARC
8
0
10
85.18905033553695
20
13.867897517130496
40
0.555
50
69.31505117707664
51
132.74999999999957
0
ARC
8
0
10
84.996402406504
20
13.46575191105639
40
1
50
47.84884377611919
51
67.12698324006318
0
ARC
8
0
10
85.76354507238966
20
14.322340235514215
40
0.15
50
-129.81859202882342
51
-47.25000000000294
0
ARC
8
0
10
50.93410244164117
20
50.92488003231469
40
50.675581789406515
50
-46.4243649331865
51
-45.82563506681511
0
ARC
8
0
10
86.14102550608557
20
14.685280670852977
40
0.15
50
-45.00000000000048
51
37.568592028828036
0
ARC
8
0
10
87.02707131171219
20
15.418202397745485
40
1
50
-159.37698324006192
51
-140.09884377611806
0
ARC
8
0
10
86.61767242312612
20
15.241491155686878
40
0.555
50
134.99999999999986
51
-161.5650511770779
0
ARC
8
0
10
86.61767242312612
20
15.24149115568688
40
0.555
50
71.56505117707763
51
135
0
ARC
8
0
10
86.44096118106752
20
14.83209226710082
40
1
50
50.098843776118336
51
69.37698324006193
0
ARC
8
0
10
87.17388290796002
20
15.718138072727447
40
0.15
50
-127.56859202882625
51
-45.00000000000096
0
ARC
8
0
10
50.934283546499636
20
50.9250611371732
40
50.675581789406515
50
-44.17436493318705
51
-43.57563506681564
0
ARC
8
0
10
87.5368233432988
20
16.09561850642335
40
0.15
50
-42.7499999999999
51
39.81859202882635
0
ARC
8
0
10
88.39341166775664
20
16.86276117230901
40
1
50
-157.12698324006337
51
-137.84884377611976
0
ARC
8
0
10
87.99126606168252
20
16.67011324327606
40
0.555
50
137.25000000000026
51
-159.31505117707727
0
ARC
8
0
10
87.99126606168252
20
16.670113243276056
40
0.555
50
73.8150511770779
51
137.25
0
ARC
8
0
10
87.83076398252528
20
16.2540923355904
40
1
50
52.34884377611931
51
71.62698324006337
0
ARC
8
0
10
88.52833465824496
20
17.168229403975452
40
0.15
50
-125.3185920288293
51
-42.7499999999999
0
ARC
8
0
10
50.93445740158724
20
50.92524921254736
40
50.675581789406515
50
-41.92436493318383
51
-41.3256350668125
0
ARC
8
0
10
88.8761754673817
20
17.55966778856002
40
0.15
50
-40.49999999999808
51
42.06859202882949
0
ARC
8
0
10
89.70198551356117
20
18.359848515051663
40
1
50
-154.8769832400641
51
-135.59884377612087
0
ARC
8
0
10
89.30771326937548
20
18.151560948187516
40
0.555
50
139.49999999999972
51
-157.06505117707752
0
ARC
8
0
10
89.30771326937548
20
18.151560948187516
40
0.555
50
76.06505117707712
51
139.49999999999972
0
ARC
8
0
10
89.16366783569222
20
17.72955949548813
40
1
50
54.598843776119075
51
73.87698324006298
0
ARC
8
0
10
89.82481185681804
20
18.670378293530128
40
0.15
50
-123.06859202882566
51
-40.49999999999911
0
ARC
8
0
10
50.93462373883673
20
50.92544396844368
40
50.675581789406515
50
-39.67436493318483
51
-39.07563506681344
0
ARC
8
0
10
90.15701669443716
20
19.07517105938642
40
0.15
50
-38.24999999999656
51
44.318592028826544
0
ARC
8
0
10
90.95077512310296
20
19.90715602580206
40
1
50
-152.626983240064
51
-133.34884377612033
0
ARC
8
0
10
90.56498418002883
20
19.68354998543783
40
0.555
50
141.74999999999986
51
-154.81505117707786
0
ARC
8
0
10
90.56498418002883
20
19.68354998543783
40
0.555
50
78.31505117707759
51
141.74999999999986
0
ARC
8
0
10
90.43761749943765
20
19.256218683377497
40
1
50
56.848843776118635
51
76.12698324006232
0
ARC
8
0
10
91.06131542980974
20
20.222268536681764
40
0.15
50
-120.81859202882875
51
-38.250000000000995
0
ARC
8
0
10
50.93478230176589
20
50.92564510456046
40
50.675581789406515
50
-37.424364933186354
51
-36.82563506681497
0
ARC
8
0
10
91.37737206013028
20
20.639791522704762
40
0.15
50
-36.000000000001485
51
46.56859202882686
0
ARC
8
0
10
92.13785495331815
20
21.502297868529663
40
1
50
-150.3769832400631
51
-131.09884377611974
0
ARC
8
0
10
91.76114017302713
20
21.263718138972283
40
0.555
50
143.99999999999918
51
-152.56505117707883
0
ARC
8
0
10
91.76114017302713
20
21.263718138972287
40
0.555
50
80.56505117707974
51
143.9999999999995
0
ARC
8
0
10
91.65064863571779
20
20.831715901445193
40
1
50
59.09884377611909
51
78.37698324006296
0
ARC
8
0
10
92.235938778334
20
21.821507231158634
40
0.15
50
-118.56859202882427
51
-36.00000000000038
0
ARC
8
0
10
50.9349328458815
20
50.925852310759474
40
50.675581789406515
50
-35.17436493318715
51
-34.57563506681574
0
ARC
8
0
10
92.53535986494028
20
22.251116647166562
40
0.15
50
-33.74999999999748
51
48.818592028832285
0
ARC
8
0
10
93.26139461314983
20
23.142814450131162
40
1
50
-148.12698324006388
51
-128.84884377612053
0
ARC
8
0
10
92.89433686252825
20
22.88962890403105
40
0.555
50
146.25000000000057
51
-150.31505117707718
0
ARC
8
0
10
92.89433686252825
20
22.889628904031042
40
0.555
50
82.81505117707847
51
146.24999999999997
0
ARC
8
0
10
92.80089083844271
20
22.453621847175306
40
1
50
61.34884377611906
51
80.62698324006311
0
ARC
8
0
10
93.34687071832585
20
23.465628466809
40
0.15
50
-116.31859202882802
51
-33.749999999999744
0
ARC
8
0
10
50.93507513905448
20
50.92606526754217
40
50.675581789406515
50
-32.9243649331851
51
-32.32563506681372
0
ARC
8
0
10
93.62919457560473
20
23.906661886221084
40
0.15
50
-31.499999999999424
51
51.0685920288297
0
ARC
8
0
10
94.31966168587829
20
24.82617621294476
40
1
50
-145.87698324006396
51
-126.5988437761204
0
ARC
8
0
10
93.96282694137274
20
24.558775244062712
40
0.555
50
148.50000000000017
51
-148.06505117707775
0
ARC
8
0
10
93.96282694137274
20
24.558775244062712
40
0.555
50
85.06505117707738
51
148.50000000000017
0
ARC
8
0
10
93.88657051750701
20
24.11943565915759
40
1
50
63.598843776117754
51
82.87698324006134
0
ARC
8
0
10
94.39239827325571
20
25.15209712785576
40
0.15
50
-114.06859202882866
51
-31.499999999999424
0
ARC
8
0
10
50.935208961881784
20
50.92628364654867
40
50.675581789406515
50
-30.674364933185753
51
-30.07563506681441
0
ARC
8
0
10
94.65718957828251
20
25.60387450910597
40
0.15
50
-29.2499999999995
51
53.3185920288251
0
ARC
8
0
10
95.31102440038207
20
26.549787535144656
40
1
50
-143.62698324006243
51
-124.34884377611853
0
ARC
8
0
10
94.9649628753047
20
26.268583456393074
40
0.555
50
150.75000000000003
51
-145.81505117707746
0
ARC
8
0
10
94.9649628753047
20
26.268583456393074
40
0.555
50
87.31505117707734
51
150.75000000000003
0
ARC
8
0
10
94.90601363353724
20
25.826588773234512
40
1
50
65.8488437761181
51
85.12698324006193
0
ARC
8
0
10
95.37090931541523
20
26.878312801861238
40
0.15
50
-111.81859202882734
51
-29.2499999999995
0
ARC
8
0
10
50.935334108016654
20
50.92650711105185
40
50.675581789406515
50
-28.42436493318571
51
-27.825635066814318
0
ARC
8
0
10
95.61775977919012
20
27.34013753697324
40
0.15
50
-27.00000000000128
51
55.568592028824725
0
ARC
8
0
10
96.2339541472109
20
28.310990733001923
40
1
50
-141.37698324006215
51
-122.0988437761178
0
ARC
8
0
10
95.89919944335034
20
28.016417140688162
40
0.555
50
152.99999999999878
51
-143.5650511770787
0
ARC
8
0
10
95.89919944335035
20
28.01641714068817
40
0.555
50
89.56505117707994
51
153.00000000000009
0
ARC
8
0
10
95.8576482791392
20
27.57244888304119
40
1
50
68.09884377611773
51
87.37698324006196
0
ARC
8
0
10
96.28089505170135
20
28.641613789374798
40
0.15
50
-109.56859202882667
51
-27.00000000000007
0
ARC
8
0
10
50.93545038449334
20
50.92673531648656
40
50.675581789406515
50
-26.17436493318608
51
-25.575635066814687
0
ARC
8
0
10
96.50942404870123
20
29.11277377808073
40
0.15
50
-24.750000000000128
51
57.818592028832335
0
ARC
8
0
10
97.0870278355904
20
30.10707015883996
40
1
50
-139.1269832400626
51
-119.84884377611922
0
ARC
8
0
10
96.76409612043649
20
29.79958126409227
40
0.555
50
155.2499999999983
51
-141.31505117707854
0
ARC
8
0
10
96.7640961204365
20
29.799581264092282
40
0.555
50
91.8150511770795
51
155.24999999999991
0
ARC
8
0
10
96.74000710266523
20
29.35432399883071
40
1
50
70.34884377611944
51
89.62698324006313
0
ARC
8
0
10
97.12095235006576
20
30.43928120808026
40
0.15
50
-107.31859202882902
51
-24.750000000001364
0
ARC
8
0
10
50.93555761202193
20
50.926967910976614
40
50.675581789406515
50
-23.92436493318696
51
-23.325635066815565
0
ARC
8
0
10
97.33080750514138
20
30.919049955827898
40
0.15
50
-22.499999999999172
51
60.068592028828725
0
ARC
8
0
10
97.86893008772512
20
31.935256388366597
40
1
50
-136.8769832400625
51
-117.59884377611844
0
ARC
8
0
10
97.55831929857607
20
31.615326316773444
40
0.555
50
157.50000000000014
51
-139.06505117707783
0
ARC
8
0
10
97.55831929857607
20
31.615326316773448
40
0.555
50
94.06505117707758
51
157.50000000000045
0
ARC
8
0
10
97.55172957076404
20
31.169466598327432
40
1
50
72.59884377611824
51
91.87698324006163
0
ARC
8
0
10
97.88978590304296
20
32.26854318511552
40
0.15
50
-105.06859202882745
51
-22.500000000000426
0
ARC
8
0
10
50.935655625265156
20
50.927204535877834
40
50.675581789406515
50
-21.674364933187906
51
-21.075635066816567
0
ARC
8
0
10
98.08064363475579
20
32.75618092327012
40
0.15
50
-20.250000000001965
51
62.31859202882952
0
ARC
8
0
10
98.57845526701563
20
33.792730490925436
40
1
50
-134.62698324006072
51
-115.34884377611667
0
ARC
8
0
10
98.28064434319481
20
33.46085255146819
40
0.555
50
159.74999999999972
51
-136.81505117707815
0
ARC
8
0
10
98.28064434319481
20
33.46085255146819
40
0.555
50
96.31505117707847
51
159.74999999999972
0
ARC
8
0
10
98.29156406622468
20
33.01507786320702
40
1
50
74.84884377611758
51
94.1269832400617
0
ARC
8
0
10
98.58621022502044
20
34.126579131099476
40
0.15
50
-102.81859202883075
51
-20.250000000001965
0
ARC
8
0
10
50.935744273092396
20
50.927444826328085
40
50.675581789406515
50
-19.42436493318457
51
-18.82563506681317
0
ARC
8
0
10
98.75777624458179
20
34.6213339576136
40
0.15
50
-17.999999999999154
51
64.56859202882839
0
ARC
8
0
10
99.21450933706296
20
35.67662837608278
40
1
50
-132.37698324006277
51
-113.09884377611914
0
ARC
8
0
10
98.9299574814291
20
35.33331430048913
40
0.555
50
161.99999999999835
51
-134.5650511770799
0
ARC
8
0
10
98.9299574814291
20
35.33331430048914
40
0.555
50
98.56505117707877
51
161.99999999999974
0
ARC
8
0
10
98.95836981787947
20
34.88831199467172
40
1
50
77.09884377611986
51
96.3769832400635
0
ARC
8
0
10
99.2091514801715
20
36.01052408927668
40
0.15
50
-100.56859202882387
51
-17.999999999999154
0
ARC
8
0
10
50.9358234188186
20
50.92768841182679
40
50.675581789406515
50
-17.174364933188674
51
-16.575635066817274
0
ARC
8
0
10
99.36116124521463
20
36.51163312806832
40
0.15
50
-15.74999999999831
51
66.81859202883035
0
ARC
8
0
10
99.77611154859314
20
37.58404520984739
40
1
50
-130.12698324006152
51
-110.84884377611748
0
ARC
8
0
10
99.5052575194829
20
37.229824363537986
40
0.555
50
164.25000000000009
51
-132.31505117707687
0
ARC
8
0
10
99.5052575194829
20
37.229824363537986
40
0.555
50
100.81505117707609
51
164.25000000000009
0
ARC
8
0
10
99.55111865959032
20
36.786280601465464
40
1
50
79.348843776119
51
98.62698324006274
0
ARC
8
0
10
99.75764913823247
20
37.9174731530726
40
0.15
50
-98.31859202882978
51
-15.74999999999831
0
ARC
8
0
10
50.93589294040246
20
50.92793491676915
40
50.675581789406515
50
-14.924364933184105
51
-14.325635066812767
0
ARC
8
0
10
99.88986826071748
20
38.42416373032501
40
0.15
50
-13.499999999996312
51
69.06859202882767
0
ARC
8
0
10
100.26239595170176
20
39.51203989371382
40
1
50
-127.87698324006261
51
-108.59884377611905
0
ARC
8
0
10
100.00565738639614
20
39.14745845955924
40
0.555
50
166.49999999999991
51
-130.0650511770774
0
ARC
8
0
10
100.00565738639614
20
39.147458459559246
40
0.555
50
103.06505117707796
51
166.50000000000065
0
ARC
8
0
10
100.06889661560658
20
38.706057153564046
40
1
50
81.598843776117
51
100.87698324006087
0
ARC
8
0
10
100.23085745557042
20
39.84448594524925
40
0.15
50
-96.06859202882991
51
-13.499999999996312
0
ARC
8
0
10
50.935952730650065
20
50.92818396107356
40
50.675581789406515
50
-12.674364933184096
51
-12.075635066812712
0
ARC
8
0
10
100.34308206319393
20
40.355976780818075
40
0.15
50
-11.249999999999194
51
71.31859202882757
0
ARC
8
0
10
100.67261273108582
20
41.45763959962351
40
1
50
-125.62698324006277
51
-106.3488437761195
0
ARC
8
0
10
100.43038550184374
20
41.083259735769836
40
0.555
50
168.75000000000006
51
-127.8150511770773
0
ARC
8
0
10
100.43038550184374
20
41.08325973576983
40
0.555
50
105.31505117707775
51
168.74999999999932
0
ARC
8
0
10
100.5109053098495
20
40.644681494672405
40
1
50
83.84884377611799
51
103.12698324006222
0
ARC
8
0
10
100.6280467792589
20
41.78859115175387
40
0.15
50
-93.8185920288227
51
-11.249999999999194
0
ARC
8
0
10
50.936002697368636
20
50.92843516073116
40
50.675581789406515
50
-10.424364933187748
51
-9.825635066816357
0
ARC
8
0
10
100.72010382981018
20
42.3040935638442
40
0.15
50
-9.000000000000846
51
73.56859202883108
0
ARC
8
0
10
101.00612936220463
20
43.417844353849794
40
1
50
-123.37698324006284
51
-104.09884377611957
0
ARC
8
0
10
100.77878696585661
20
43.03424332691147
40
0.555
50
171.00000000000003
51
-125.56505117707769
0
ARC
8
0
10
100.77878696585661
20
43.03424332691147
40
0.555
50
107.56505117707799
51
171.00000000000003
0
ARC
8
0
10
100.87646319694991
20
42.5991644065708
40
1
50
86.098843776118
51
105.37698324006213
0
ARC
8
0
10
100.94860467214966
20
43.74679110326952
40
0.15
50
-91.56859202882826
51
-8.999999999998165
0
ARC
8
0
10
50.93604276351137
20
50.92868812840048
40
50.675581789406515
50
-8.174364933183814
51
-7.57563506681242
0
ARC
8
0
10
101.02035222032913
20
44.26551022452628
40
0.15
50
-6.749999999998318
51
75.81859202882559
0
ARC
8
0
10
101.26243158658673
20
45.389631662740115
40
1
50
-121.12698324006215
51
-101.84884377611829
0
ARC
8
0
10
101.05032456862985
20
44.99740095769673
40
0.555
50
173.2500000000001
51
-123.31505117707822
0
ARC
8
0
10
101.05032456862985
20
44.997400957696726
40
0.555
50
109.81505117707746
51
173.2499999999994
0
ARC
8
0
10
101.16500661314208
20
44.566492218272835
40
1
50
88.34884377611931
51
107.62698324006308
0
ARC
8
0
10
101.1920368572063
20
45.716066397404155
40
0.15
50
-89.31859202882872
51
-6.750000000001014
0
ARC
8
0
10
50.936072867301135
20
50.928942474035765
40
50.675581789406515
50
-5.924364933186139
51
-5.3256350668147885
0
ARC
8
0
10
101.24336427349508
20
46.23720240053983
40
0.15
50
-4.499999999999724
51
78.0685920288241
0
ARC
8
0
10
101.44112420477933
20
47.36996117318212
40
1
50
-118.8769832400623
51
-99.59884377611816
0
ARC
8
0
10
101.24457961886142
20
46.96970558135141
40
0.555
50
175.50000000000063
51
-121.06505117707745
0
ARC
8
0
10
101.24457961886142
20
46.9697055813514
40
0.555
50
112.06505117707788
51
175.49999999999915
0
ARC
8
0
10
101.37609064539225
20
46.54363145288759
40
1
50
90.59884377612006
51
109.8769832400634
0
ARC
8
0
10
101.3579679796438
20
47.69338055439008
40
0.15
50
-87.06859202882798
51
-4.499999999999724
0
ARC
8
0
10
50.93609296231899
20
50.929197805447025
40
50.675581789406515
50
-3.674364933186231
51
-3.0756350668148476
0
ARC
8
0
10
101.38879612088624
20
48.2161298854606
40
0.15
50
-2.250000000000897
51
80.31859202882414
0
ARC
8
0
10
101.54193168571703
20
49.35577936060793
40
1
50
-116.62698324006199
51
-97.34884377611813
0
ARC
8
0
10
101.36125258934376
20
48.94811604710139
40
0.555
50
177.75000000000034
51
-118.81505117707755
0
ARC
8
0
10
101.36125258934376
20
48.94811604710138
40
0.555
50
114.31505117707717
51
177.74999999999963
0
ARC
8
0
10
101.50938981742239
20
48.52753350502126
40
1
50
92.84884377611898
51
112.12698324006283
0
ARC
8
0
10
101.44614218569832
20
49.67568469911589
40
0.15
50
-84.81859202882535
51
-2.250000000000897
0
ARC
8
0
10
50.936103017580116
20
50.92945372893224
40
50.675581789406515
50
-1.4243649331846155
51
-0.8256350668132287
0
ENDSEC
0
EOF